# MagicaVoxel @ Ephtracy

# group
o 

# material
mtllib Calle2.mtl
usemtl palette

# normals
vn -1 0 0
vn 1 0 0
vn 0 0 1
vn 0 0 -1
vn 0 -1 0
vn 0 1 0

# texcoords
vt 0.0214844 0.5
vt 0.986328 0.5
vt 0.990234 0.5

# verts
v -2 0 2
v -2 0 1.6
v -2 0 -1.9
v -2 0 -2
v -2 0.1 2
v -2 0.1 1.6
v -2 0.1 -1.9
v -2 0.1 -2
v 2 0 2
v 2 0 1.6
v 2 0 -1.9
v 2 0 -2
v 2 0.1 2
v 2 0.1 1.6
v 2 0.1 -1.9
v 2 0.1 -2
v -2 0 2
v -2 0.1 2
v -1 0 2
v -1 0.1 2
v 1 0 2
v 1 0.1 2
v 2 0 2
v 2 0.1 2
v -2 0 -2
v -2 0.1 -2
v 2 0 -2
v 2 0.1 -2
v -2 0 2
v -1 0 2
v 1 0 2
v 2 0 2
v -2 0 1.6
v -1 0 1.6
v 1 0 1.6
v 2 0 1.6
v -2 0 -1.9
v 2 0 -1.9
v -2 0 -2
v 2 0 -2
v -2 0.1 2
v -1 0.1 2
v 1 0.1 2
v 2 0.1 2
v -2 0.1 1.6
v -1 0.1 1.6
v 1 0.1 1.6
v 2 0.1 1.6
v -2 0.1 -1.9
v 2 0.1 -1.9
v -2 0.1 -2
v 2 0.1 -2

# faces
f 5/1/1 2/1/1 1/1/1
f 6/3/1 3/3/1 2/3/1
f 6/1/1 2/1/1 5/1/1
f 7/2/1 4/2/1 3/2/1
f 7/3/1 3/3/1 6/3/1
f 8/2/1 4/2/1 7/2/1
f 9/1/2 10/1/2 13/1/2
f 10/3/2 11/3/2 14/3/2
f 13/1/2 10/1/2 14/1/2
f 11/2/2 12/2/2 15/2/2
f 14/3/2 11/3/2 15/3/2
f 15/2/2 12/2/2 16/2/2
f 19/1/3 18/1/3 17/1/3
f 20/1/3 18/1/3 19/1/3
f 21/3/3 20/3/3 19/3/3
f 22/3/3 20/3/3 21/3/3
f 23/1/3 22/1/3 21/1/3
f 24/1/3 22/1/3 23/1/3
f 25/2/4 26/2/4 27/2/4
f 27/2/4 26/2/4 28/2/4
f 33/1/5 30/1/5 29/1/5
f 34/3/5 31/3/5 30/3/5
f 34/1/5 30/1/5 33/1/5
f 35/1/5 32/1/5 31/1/5
f 35/3/5 31/3/5 34/3/5
f 36/1/5 32/1/5 35/1/5
f 37/3/5 34/3/5 33/3/5
f 37/3/5 35/3/5 34/3/5
f 37/3/5 36/3/5 35/3/5
f 38/3/5 36/3/5 37/3/5
f 39/2/5 38/2/5 37/2/5
f 40/2/5 38/2/5 39/2/5
f 41/1/6 42/1/6 45/1/6
f 42/3/6 43/3/6 46/3/6
f 45/1/6 42/1/6 46/1/6
f 43/1/6 44/1/6 47/1/6
f 46/3/6 43/3/6 47/3/6
f 47/1/6 44/1/6 48/1/6
f 45/3/6 46/3/6 49/3/6
f 46/3/6 47/3/6 49/3/6
f 47/3/6 48/3/6 49/3/6
f 49/3/6 48/3/6 50/3/6
f 49/2/6 50/2/6 51/2/6
f 51/2/6 50/2/6 52/2/6
