# MagicaVoxel @ Ephtracy

# group
o 

# material
mtllib espada.mtl
usemtl palette

# normals
vn -1 0 0
vn 1 0 0
vn 0 0 1
vn 0 0 -1
vn 0 -1 0
vn 0 1 0

# texcoords
vt 0.537109 0.5
vt 0.982422 0.5
vt 0.990234 0.5

# verts
v -1.1 0.9 0.2
v -1.1 0.9 0.1
v -1.1 1.1 0.2
v -1.1 1.1 0.1
v -1 0.7 0.2
v -1 0.7 0.1
v -1 0.9 0.2
v -1 0.9 0.1
v -0.9 0.4 0.2
v -0.9 0.4 0.1
v -0.9 0.5 0.2
v -0.9 0.5 0.1
v -0.9 0.6 0.2
v -0.9 0.6 0.1
v -0.9 0.7 0.2
v -0.9 0.7 0.1
v -0.8 0.5 0.2
v -0.8 0.5 0.1
v -0.8 0.6 0.2
v -0.8 0.6 0.1
v -0.7 0.2 0.2
v -0.7 0.2 0.1
v -0.7 0.4 0.2
v -0.7 0.4 0.1
v -0.6 0.5 0.3
v -0.6 0.5 0.2
v -0.6 0.5 0.1
v -0.6 0.5 -2.98023e-08
v -0.6 0.6 0.3
v -0.6 0.6 0.2
v -0.6 0.6 0.1
v -0.6 0.6 -2.98023e-08
v -0.5 0.1 0.2
v -0.5 0.1 0.1
v -0.5 0.2 0.2
v -0.5 0.2 0.1
v -0.5 0.4 0.3
v -0.5 0.4 0.2
v -0.5 0.4 0.1
v -0.5 0.4 -2.98023e-08
v -0.5 0.5 0.3
v -0.5 0.5 0.2
v -0.5 0.5 0.1
v -0.5 0.5 -2.98023e-08
v -0.5 0.8 0.2
v -0.5 0.8 0.1
v -0.5 0.9 0.2
v -0.5 0.9 0.1
v -0.4 0 0.2
v -0.4 0 0.1
v -0.4 0.1 0.2
v -0.4 0.1 0.1
v -0.4 0.3 0.3
v -0.4 0.3 0.2
v -0.4 0.3 0.1
v -0.4 0.3 -2.98023e-08
v -0.4 0.4 0.3
v -0.4 0.4 0.2
v -0.4 0.4 0.1
v -0.4 0.4 -2.98023e-08
v -0.3 0.2 0.3
v -0.3 0.2 0.2
v -0.3 0.2 0.1
v -0.3 0.2 -2.98023e-08
v -0.3 0.3 0.3
v -0.3 0.3 0.2
v -0.3 0.3 0.1
v -0.3 0.3 -2.98023e-08
v -0.2 0.1 0.3
v -0.2 0.1 0.2
v -0.2 0.1 0.1
v -0.2 0.1 -2.98023e-08
v -0.2 0.2 0.3
v -0.2 0.2 0.2
v -0.2 0.2 0.1
v -0.2 0.2 -2.98023e-08
v -0.1 0 0.3
v -0.1 0 0.2
v -0.1 0 0.1
v -0.1 0 -2.98023e-08
v -0.1 0.1 0.3
v -0.1 0.1 0.2
v -0.1 0.1 0.1
v -0.1 0.1 -2.98023e-08
v -0.9 1 0.2
v -0.9 1 0.1
v -0.9 1.1 0.2
v -0.9 1.1 0.1
v -0.7 0.9 0.2
v -0.7 0.9 0.1
v -0.7 1 0.2
v -0.7 1 0.1
v -0.6 0.8 0.2
v -0.6 0.8 0.1
v -0.6 0.9 0.2
v -0.6 0.9 0.1
v -0.5 0.5 0.3
v -0.5 0.5 0.2
v -0.5 0.5 0.1
v -0.5 0.5 -2.98023e-08
v -0.5 0.6 0.3
v -0.5 0.6 0.2
v -0.5 0.6 0.1
v -0.5 0.6 -2.98023e-08
v -0.4 0.4 0.3
v -0.4 0.4 0.2
v -0.4 0.4 0.1
v -0.4 0.4 -2.98023e-08
v -0.4 0.5 0.3
v -0.4 0.5 0.2
v -0.4 0.5 0.1
v -0.4 0.5 -2.98023e-08
v -0.4 0.7 0.2
v -0.4 0.7 0.1
v -0.4 0.9 0.2
v -0.4 0.9 0.1
v -0.3 0.3 0.3
v -0.3 0.3 0.2
v -0.3 0.3 0.1
v -0.3 0.3 -2.98023e-08
v -0.3 0.4 0.3
v -0.3 0.4 0.2
v -0.3 0.4 0.1
v -0.3 0.4 -2.98023e-08
v -0.2 0.2 0.3
v -0.2 0.2 0.2
v -0.2 0.2 0.1
v -0.2 0.2 -2.98023e-08
v -0.2 0.3 0.3
v -0.2 0.3 0.2
v -0.2 0.3 0.1
v -0.2 0.3 -2.98023e-08
v -0.2 0.6 0.2
v -0.2 0.6 0.1
v -0.2 0.7 0.2
v -0.2 0.7 0.1
v -0.1 0.1 0.3
v -0.1 0.1 0.2
v -0.1 0.1 0.1
v -0.1 0.1 -2.98023e-08
v -0.1 0.2 0.3
v -0.1 0.2 0.2
v -0.1 0.2 0.1
v -0.1 0.2 -2.98023e-08
v -0.1 0.5 0.2
v -0.1 0.5 0.1
v -0.1 0.6 0.2
v -0.1 0.6 0.1
v 0 0 0.3
v 0 0 0.2
v 0 0 0.1
v 0 0 -2.98023e-08
v 0 0.1 0.3
v 0 0.1 0.2
v 0 0.1 0.1
v 0 0.1 -2.98023e-08
v 0 0.4 0.2
v 0 0.4 0.1
v 0 0.5 0.2
v 0 0.5 0.1
v 0.1 0.3 0.2
v 0.1 0.3 0.1
v 0.1 0.4 0.2
v 0.1 0.4 0.1
v 0.2 0.2 0.2
v 0.2 0.2 0.1
v 0.2 0.3 0.2
v 0.2 0.3 0.1
v 0.3 0.1 0.2
v 0.3 0.1 0.1
v 0.3 0.2 0.2
v 0.3 0.2 0.1
v 0.4 0 0.2
v 0.4 0 0.1
v 0.4 0.1 0.2
v 0.4 0.1 0.1
v -0.6 0.5 0.3
v -0.6 0.6 0.3
v -0.5 0.4 0.3
v -0.5 0.5 0.3
v -0.5 0.6 0.3
v -0.4 0.3 0.3
v -0.4 0.4 0.3
v -0.4 0.5 0.3
v -0.3 0.2 0.3
v -0.3 0.3 0.3
v -0.3 0.4 0.3
v -0.2 0.1 0.3
v -0.2 0.2 0.3
v -0.2 0.3 0.3
v -0.1 0 0.3
v -0.1 0.1 0.3
v -0.1 0.2 0.3
v 0 0 0.3
v 0 0.1 0.3
v -1.1 0.9 0.2
v -1.1 1.1 0.2
v -1 0.7 0.2
v -1 0.9 0.2
v -0.9 0.4 0.2
v -0.9 0.5 0.2
v -0.9 0.6 0.2
v -0.9 0.7 0.2
v -0.9 1 0.2
v -0.9 1.1 0.2
v -0.8 0.5 0.2
v -0.8 0.6 0.2
v -0.7 0.2 0.2
v -0.7 0.4 0.2
v -0.7 0.5 0.2
v -0.7 0.9 0.2
v -0.7 1 0.2
v -0.6 0.5 0.2
v -0.6 0.6 0.2
v -0.6 0.8 0.2
v -0.6 0.9 0.2
v -0.5 0.1 0.2
v -0.5 0.2 0.2
v -0.5 0.4 0.2
v -0.5 0.5 0.2
v -0.5 0.6 0.2
v -0.5 0.7 0.2
v -0.5 0.8 0.2
v -0.5 0.9 0.2
v -0.4 0 0.2
v -0.4 0.1 0.2
v -0.4 0.3 0.2
v -0.4 0.4 0.2
v -0.4 0.5 0.2
v -0.4 0.7 0.2
v -0.4 0.9 0.2
v -0.3 0.2 0.2
v -0.3 0.3 0.2
v -0.3 0.4 0.2
v -0.2 0.1 0.2
v -0.2 0.2 0.2
v -0.2 0.3 0.2
v -0.2 0.6 0.2
v -0.2 0.7 0.2
v -0.1 0 0.2
v -0.1 0.1 0.2
v -0.1 0.2 0.2
v -0.1 0.5 0.2
v -0.1 0.6 0.2
v 0 0 0.2
v 0 0.1 0.2
v 0 0.4 0.2
v 0 0.5 0.2
v 0.1 0.3 0.2
v 0.1 0.4 0.2
v 0.2 0.2 0.2
v 0.2 0.3 0.2
v 0.3 0.1 0.2
v 0.3 0.2 0.2
v 0.4 0 0.2
v 0.4 0.1 0.2
v -1.1 0.9 0.1
v -1.1 1.1 0.1
v -1 0.7 0.1
v -1 0.9 0.1
v -0.9 0.4 0.1
v -0.9 0.5 0.1
v -0.9 0.6 0.1
v -0.9 0.7 0.1
v -0.9 1 0.1
v -0.9 1.1 0.1
v -0.8 0.5 0.1
v -0.8 0.6 0.1
v -0.7 0.2 0.1
v -0.7 0.4 0.1
v -0.7 0.5 0.1
v -0.7 0.9 0.1
v -0.7 1 0.1
v -0.6 0.5 0.1
v -0.6 0.6 0.1
v -0.6 0.8 0.1
v -0.6 0.9 0.1
v -0.5 0.1 0.1
v -0.5 0.2 0.1
v -0.5 0.4 0.1
v -0.5 0.5 0.1
v -0.5 0.6 0.1
v -0.5 0.7 0.1
v -0.5 0.8 0.1
v -0.5 0.9 0.1
v -0.4 0 0.1
v -0.4 0.1 0.1
v -0.4 0.3 0.1
v -0.4 0.4 0.1
v -0.4 0.5 0.1
v -0.4 0.7 0.1
v -0.4 0.9 0.1
v -0.3 0.2 0.1
v -0.3 0.3 0.1
v -0.3 0.4 0.1
v -0.2 0.1 0.1
v -0.2 0.2 0.1
v -0.2 0.3 0.1
v -0.2 0.6 0.1
v -0.2 0.7 0.1
v -0.1 0 0.1
v -0.1 0.1 0.1
v -0.1 0.2 0.1
v -0.1 0.5 0.1
v -0.1 0.6 0.1
v 0 0 0.1
v 0 0.1 0.1
v 0 0.4 0.1
v 0 0.5 0.1
v 0.1 0.3 0.1
v 0.1 0.4 0.1
v 0.2 0.2 0.1
v 0.2 0.3 0.1
v 0.3 0.1 0.1
v 0.3 0.2 0.1
v 0.4 0 0.1
v 0.4 0.1 0.1
v -0.6 0.5 -2.98023e-08
v -0.6 0.6 -2.98023e-08
v -0.5 0.4 -2.98023e-08
v -0.5 0.5 -2.98023e-08
v -0.5 0.6 -2.98023e-08
v -0.4 0.3 -2.98023e-08
v -0.4 0.4 -2.98023e-08
v -0.4 0.5 -2.98023e-08
v -0.3 0.2 -2.98023e-08
v -0.3 0.3 -2.98023e-08
v -0.3 0.4 -2.98023e-08
v -0.2 0.1 -2.98023e-08
v -0.2 0.2 -2.98023e-08
v -0.2 0.3 -2.98023e-08
v -0.1 0 -2.98023e-08
v -0.1 0.1 -2.98023e-08
v -0.1 0.2 -2.98023e-08
v 0 0 -2.98023e-08
v 0 0.1 -2.98023e-08
v -0.1 0 0.3
v 0 0 0.3
v -0.4 0 0.2
v -0.1 0 0.2
v 0 0 0.2
v 0.4 0 0.2
v -0.4 0 0.1
v -0.1 0 0.1
v 0 0 0.1
v 0.4 0 0.1
v -0.1 0 -2.98023e-08
v 0 0 -2.98023e-08
v -0.2 0.1 0.3
v -0.1 0.1 0.3
v -0.5 0.1 0.2
v -0.4 0.1 0.2
v -0.2 0.1 0.2
v -0.1 0.1 0.2
v -0.5 0.1 0.1
v -0.4 0.1 0.1
v -0.2 0.1 0.1
v -0.1 0.1 0.1
v -0.2 0.1 -2.98023e-08
v -0.1 0.1 -2.98023e-08
v -0.3 0.2 0.3
v -0.2 0.2 0.3
v -0.7 0.2 0.2
v -0.5 0.2 0.2
v -0.3 0.2 0.2
v -0.2 0.2 0.2
v -0.7 0.2 0.1
v -0.5 0.2 0.1
v -0.3 0.2 0.1
v -0.2 0.2 0.1
v -0.3 0.2 -2.98023e-08
v -0.2 0.2 -2.98023e-08
v -0.4 0.3 0.3
v -0.3 0.3 0.3
v -0.4 0.3 0.2
v -0.3 0.3 0.2
v -0.4 0.3 0.1
v -0.3 0.3 0.1
v -0.4 0.3 -2.98023e-08
v -0.3 0.3 -2.98023e-08
v -0.5 0.4 0.3
v -0.4 0.4 0.3
v -0.9 0.4 0.2
v -0.7 0.4 0.2
v -0.5 0.4 0.2
v -0.4 0.4 0.2
v -0.9 0.4 0.1
v -0.7 0.4 0.1
v -0.5 0.4 0.1
v -0.4 0.4 0.1
v -0.5 0.4 -2.98023e-08
v -0.4 0.4 -2.98023e-08
v -0.6 0.5 0.3
v -0.5 0.5 0.3
v -0.6 0.5 0.2
v -0.5 0.5 0.2
v -0.6 0.5 0.1
v -0.5 0.5 0.1
v -0.6 0.5 -2.98023e-08
v -0.5 0.5 -2.98023e-08
v -0.9 0.6 0.2
v -0.8 0.6 0.2
v -0.9 0.6 0.1
v -0.8 0.6 0.1
v -1 0.7 0.2
v -0.9 0.7 0.2
v -1 0.7 0.1
v -0.9 0.7 0.1
v -1.1 0.9 0.2
v -1 0.9 0.2
v -1.1 0.9 0.1
v -1 0.9 0.1
v -0.1 0.1 0.3
v 0 0.1 0.3
v -0.1 0.1 0.2
v 0 0.1 0.2
v 0.3 0.1 0.2
v 0.4 0.1 0.2
v -0.1 0.1 0.1
v 0 0.1 0.1
v 0.3 0.1 0.1
v 0.4 0.1 0.1
v -0.1 0.1 -2.98023e-08
v 0 0.1 -2.98023e-08
v -0.2 0.2 0.3
v -0.1 0.2 0.3
v -0.2 0.2 0.2
v -0.1 0.2 0.2
v 0.2 0.2 0.2
v 0.3 0.2 0.2
v -0.2 0.2 0.1
v -0.1 0.2 0.1
v 0.2 0.2 0.1
v 0.3 0.2 0.1
v -0.2 0.2 -2.98023e-08
v -0.1 0.2 -2.98023e-08
v -0.3 0.3 0.3
v -0.2 0.3 0.3
v -0.3 0.3 0.2
v -0.2 0.3 0.2
v 0.1 0.3 0.2
v 0.2 0.3 0.2
v -0.3 0.3 0.1
v -0.2 0.3 0.1
v 0.1 0.3 0.1
v 0.2 0.3 0.1
v -0.3 0.3 -2.98023e-08
v -0.2 0.3 -2.98023e-08
v -0.4 0.4 0.3
v -0.3 0.4 0.3
v -0.4 0.4 0.2
v -0.3 0.4 0.2
v 0 0.4 0.2
v 0.1 0.4 0.2
v -0.4 0.4 0.1
v -0.3 0.4 0.1
v 0 0.4 0.1
v 0.1 0.4 0.1
v -0.4 0.4 -2.98023e-08
v -0.3 0.4 -2.98023e-08
v -0.5 0.5 0.3
v -0.4 0.5 0.3
v -0.9 0.5 0.2
v -0.8 0.5 0.2
v -0.5 0.5 0.2
v -0.4 0.5 0.2
v -0.1 0.5 0.2
v 0 0.5 0.2
v -0.9 0.5 0.1
v -0.8 0.5 0.1
v -0.5 0.5 0.1
v -0.4 0.5 0.1
v -0.1 0.5 0.1
v 0 0.5 0.1
v -0.5 0.5 -2.98023e-08
v -0.4 0.5 -2.98023e-08
v -0.6 0.6 0.3
v -0.5 0.6 0.3
v -0.6 0.6 0.2
v -0.5 0.6 0.2
v -0.2 0.6 0.2
v -0.1 0.6 0.2
v -0.6 0.6 0.1
v -0.5 0.6 0.1
v -0.2 0.6 0.1
v -0.1 0.6 0.1
v -0.6 0.6 -2.98023e-08
v -0.5 0.6 -2.98023e-08
v -0.4 0.7 0.2
v -0.2 0.7 0.2
v -0.4 0.7 0.1
v -0.2 0.7 0.1
v -0.6 0.8 0.2
v -0.5 0.8 0.2
v -0.6 0.8 0.1
v -0.5 0.8 0.1
v -0.7 0.9 0.2
v -0.6 0.9 0.2
v -0.5 0.9 0.2
v -0.4 0.9 0.2
v -0.7 0.9 0.1
v -0.6 0.9 0.1
v -0.5 0.9 0.1
v -0.4 0.9 0.1
v -0.9 1 0.2
v -0.7 1 0.2
v -0.9 1 0.1
v -0.7 1 0.1
v -1.1 1.1 0.2
v -0.9 1.1 0.2
v -1.1 1.1 0.1
v -0.9 1.1 0.1

# faces
f 3/1/1 2/1/1 1/1/1
f 4/1/1 2/1/1 3/1/1
f 7/1/1 6/1/1 5/1/1
f 8/1/1 6/1/1 7/1/1
f 11/1/1 10/1/1 9/1/1
f 12/1/1 10/1/1 11/1/1
f 15/1/1 14/1/1 13/1/1
f 16/1/1 14/1/1 15/1/1
f 19/1/1 18/1/1 17/1/1
f 20/1/1 18/1/1 19/1/1
f 23/2/1 22/2/1 21/2/1
f 24/2/1 22/2/1 23/2/1
f 29/3/1 26/3/1 25/3/1
f 30/3/1 26/3/1 29/3/1
f 31/3/1 28/3/1 27/3/1
f 32/3/1 28/3/1 31/3/1
f 35/2/1 34/2/1 33/2/1
f 36/2/1 34/2/1 35/2/1
f 41/3/1 38/3/1 37/3/1
f 42/3/1 38/3/1 41/3/1
f 43/3/1 40/3/1 39/3/1
f 44/3/1 40/3/1 43/3/1
f 47/1/1 46/1/1 45/1/1
f 48/1/1 46/1/1 47/1/1
f 51/2/1 50/2/1 49/2/1
f 52/2/1 50/2/1 51/2/1
f 57/3/1 54/3/1 53/3/1
f 58/3/1 54/3/1 57/3/1
f 59/3/1 56/3/1 55/3/1
f 60/3/1 56/3/1 59/3/1
f 65/3/1 62/3/1 61/3/1
f 66/3/1 62/3/1 65/3/1
f 67/3/1 64/3/1 63/3/1
f 68/3/1 64/3/1 67/3/1
f 73/3/1 70/3/1 69/3/1
f 74/3/1 70/3/1 73/3/1
f 75/3/1 72/3/1 71/3/1
f 76/3/1 72/3/1 75/3/1
f 81/3/1 78/3/1 77/3/1
f 82/3/1 78/3/1 81/3/1
f 83/3/1 80/3/1 79/3/1
f 84/3/1 80/3/1 83/3/1
f 85/1/2 86/1/2 87/1/2
f 87/1/2 86/1/2 88/1/2
f 89/1/2 90/1/2 91/1/2
f 91/1/2 90/1/2 92/1/2
f 93/1/2 94/1/2 95/1/2
f 95/1/2 94/1/2 96/1/2
f 97/3/2 98/3/2 101/3/2
f 101/3/2 98/3/2 102/3/2
f 99/3/2 100/3/2 103/3/2
f 103/3/2 100/3/2 104/3/2
f 105/3/2 106/3/2 109/3/2
f 109/3/2 106/3/2 110/3/2
f 107/3/2 108/3/2 111/3/2
f 111/3/2 108/3/2 112/3/2
f 113/1/2 114/1/2 115/1/2
f 115/1/2 114/1/2 116/1/2
f 117/3/2 118/3/2 121/3/2
f 121/3/2 118/3/2 122/3/2
f 119/3/2 120/3/2 123/3/2
f 123/3/2 120/3/2 124/3/2
f 125/3/2 126/3/2 129/3/2
f 129/3/2 126/3/2 130/3/2
f 127/3/2 128/3/2 131/3/2
f 131/3/2 128/3/2 132/3/2
f 133/2/2 134/2/2 135/2/2
f 135/2/2 134/2/2 136/2/2
f 137/3/2 138/3/2 141/3/2
f 141/3/2 138/3/2 142/3/2
f 139/3/2 140/3/2 143/3/2
f 143/3/2 140/3/2 144/3/2
f 145/2/2 146/2/2 147/2/2
f 147/2/2 146/2/2 148/2/2
f 149/3/2 150/3/2 153/3/2
f 153/3/2 150/3/2 154/3/2
f 151/3/2 152/3/2 155/3/2
f 155/3/2 152/3/2 156/3/2
f 157/2/2 158/2/2 159/2/2
f 159/2/2 158/2/2 160/2/2
f 161/2/2 162/2/2 163/2/2
f 163/2/2 162/2/2 164/2/2
f 165/2/2 166/2/2 167/2/2
f 167/2/2 166/2/2 168/2/2
f 169/2/2 170/2/2 171/2/2
f 171/2/2 170/2/2 172/2/2
f 173/2/2 174/2/2 175/2/2
f 175/2/2 174/2/2 176/2/2
f 180/3/3 178/3/3 177/3/3
f 181/3/3 178/3/3 180/3/3
f 183/3/3 180/3/3 179/3/3
f 184/3/3 180/3/3 183/3/3
f 186/3/3 183/3/3 182/3/3
f 187/3/3 183/3/3 186/3/3
f 189/3/3 186/3/3 185/3/3
f 190/3/3 186/3/3 189/3/3
f 192/3/3 189/3/3 188/3/3
f 193/3/3 189/3/3 192/3/3
f 194/3/3 192/3/3 191/3/3
f 195/3/3 192/3/3 194/3/3
f 199/1/3 197/1/3 196/1/3
f 203/1/3 199/1/3 198/1/3
f 204/1/3 197/1/3 199/1/3
f 204/1/3 199/1/3 203/1/3
f 205/1/3 197/1/3 204/1/3
f 206/1/3 201/1/3 200/1/3
f 207/1/3 203/1/3 202/1/3
f 207/1/3 204/1/3 203/1/3
f 209/1/3 206/1/3 200/1/3
f 209/1/3 207/1/3 206/1/3
f 210/1/3 207/1/3 209/1/3
f 211/1/3 204/1/3 207/1/3
f 211/1/3 207/1/3 210/1/3
f 212/1/3 204/1/3 211/1/3
f 213/2/3 210/2/3 209/2/3
f 213/2/3 209/2/3 208/2/3
f 213/1/3 211/1/3 210/1/3
f 214/1/3 211/1/3 213/1/3
f 215/1/3 211/1/3 214/1/3
f 216/1/3 211/1/3 215/1/3
f 218/2/3 213/2/3 208/2/3
f 219/2/3 213/2/3 218/2/3
f 220/2/3 213/2/3 219/2/3
f 221/1/3 215/1/3 214/1/3
f 222/1/3 215/1/3 221/1/3
f 223/1/3 215/1/3 222/1/3
f 226/2/3 218/2/3 217/2/3
f 226/2/3 219/2/3 218/2/3
f 227/2/3 219/2/3 226/2/3
f 228/2/3 219/2/3 227/2/3
f 229/2/3 222/2/3 221/2/3
f 229/2/3 221/2/3 220/2/3
f 230/1/3 224/1/3 223/1/3
f 230/1/3 223/1/3 222/1/3
f 230/2/3 222/2/3 229/2/3
f 231/1/3 224/1/3 230/1/3
f 232/2/3 227/2/3 226/2/3
f 232/2/3 226/2/3 225/2/3
f 233/2/3 227/2/3 232/2/3
f 234/2/3 229/2/3 228/2/3
f 234/2/3 230/2/3 229/2/3
f 235/2/3 232/2/3 225/2/3
f 236/2/3 232/2/3 235/2/3
f 237/2/3 234/2/3 233/2/3
f 238/2/3 230/2/3 234/2/3
f 238/2/3 234/2/3 237/2/3
f 239/2/3 230/2/3 238/2/3
f 240/2/3 235/2/3 225/2/3
f 241/2/3 235/2/3 240/2/3
f 242/2/3 237/2/3 236/2/3
f 242/2/3 238/2/3 237/2/3
f 243/2/3 238/2/3 242/2/3
f 244/2/3 238/2/3 243/2/3
f 246/2/3 242/2/3 241/2/3
f 246/2/3 243/2/3 242/2/3
f 247/2/3 243/2/3 246/2/3
f 248/2/3 243/2/3 247/2/3
f 249/2/3 246/2/3 245/2/3
f 249/2/3 247/2/3 246/2/3
f 250/2/3 247/2/3 249/2/3
f 251/2/3 249/2/3 245/2/3
f 252/2/3 249/2/3 251/2/3
f 253/2/3 251/2/3 245/2/3
f 254/2/3 251/2/3 253/2/3
f 255/2/3 253/2/3 245/2/3
f 256/2/3 253/2/3 255/2/3
f 257/1/4 258/1/4 260/1/4
f 259/1/4 260/1/4 264/1/4
f 260/1/4 258/1/4 265/1/4
f 264/1/4 260/1/4 265/1/4
f 265/1/4 258/1/4 266/1/4
f 261/1/4 262/1/4 267/1/4
f 263/1/4 264/1/4 268/1/4
f 264/1/4 265/1/4 268/1/4
f 261/1/4 267/1/4 270/1/4
f 267/1/4 268/1/4 270/1/4
f 270/1/4 268/1/4 271/1/4
f 268/1/4 265/1/4 272/1/4
f 271/1/4 268/1/4 272/1/4
f 272/1/4 265/1/4 273/1/4
f 270/2/4 271/2/4 274/2/4
f 269/2/4 270/2/4 274/2/4
f 271/1/4 272/1/4 274/1/4
f 274/1/4 272/1/4 275/1/4
f 275/1/4 272/1/4 276/1/4
f 276/1/4 272/1/4 277/1/4
f 269/2/4 274/2/4 279/2/4
f 279/2/4 274/2/4 280/2/4
f 280/2/4 274/2/4 281/2/4
f 275/1/4 276/1/4 282/1/4
f 282/1/4 276/1/4 283/1/4
f 283/1/4 276/1/4 284/1/4
f 278/2/4 279/2/4 287/2/4
f 279/2/4 280/2/4 287/2/4
f 287/2/4 280/2/4 288/2/4
f 288/2/4 280/2/4 289/2/4
f 282/2/4 283/2/4 290/2/4
f 281/2/4 282/2/4 290/2/4
f 284/1/4 285/1/4 291/1/4
f 283/1/4 284/1/4 291/1/4
f 290/2/4 283/2/4 291/2/4
f 291/1/4 285/1/4 292/1/4
f 287/2/4 288/2/4 293/2/4
f 286/2/4 287/2/4 293/2/4
f 293/2/4 288/2/4 294/2/4
f 289/2/4 290/2/4 295/2/4
f 290/2/4 291/2/4 295/2/4
f 286/2/4 293/2/4 296/2/4
f 296/2/4 293/2/4 297/2/4
f 294/2/4 295/2/4 298/2/4
f 295/2/4 291/2/4 299/2/4
f 298/2/4 295/2/4 299/2/4
f 299/2/4 291/2/4 300/2/4
f 286/2/4 296/2/4 301/2/4
f 301/2/4 296/2/4 302/2/4
f 297/2/4 298/2/4 303/2/4
f 298/2/4 299/2/4 303/2/4
f 303/2/4 299/2/4 304/2/4
f 304/2/4 299/2/4 305/2/4
f 302/2/4 303/2/4 307/2/4
f 303/2/4 304/2/4 307/2/4
f 307/2/4 304/2/4 308/2/4
f 308/2/4 304/2/4 309/2/4
f 306/2/4 307/2/4 310/2/4
f 307/2/4 308/2/4 310/2/4
f 310/2/4 308/2/4 311/2/4
f 306/2/4 310/2/4 312/2/4
f 312/2/4 310/2/4 313/2/4
f 306/2/4 312/2/4 314/2/4
f 314/2/4 312/2/4 315/2/4
f 306/2/4 314/2/4 316/2/4
f 316/2/4 314/2/4 317/2/4
f 318/3/4 319/3/4 321/3/4
f 321/3/4 319/3/4 322/3/4
f 320/3/4 321/3/4 324/3/4
f 324/3/4 321/3/4 325/3/4
f 323/3/4 324/3/4 327/3/4
f 327/3/4 324/3/4 328/3/4
f 326/3/4 327/3/4 330/3/4
f 330/3/4 327/3/4 331/3/4
f 329/3/4 330/3/4 333/3/4
f 333/3/4 330/3/4 334/3/4
f 332/3/4 333/3/4 335/3/4
f 335/3/4 333/3/4 336/3/4
f 340/3/5 338/3/5 337/3/5
f 341/3/5 338/3/5 340/3/5
f 343/2/5 340/2/5 339/2/5
f 343/2/5 342/2/5 341/2/5
f 343/2/5 341/2/5 340/2/5
f 344/2/5 342/2/5 343/2/5
f 345/2/5 342/2/5 344/2/5
f 346/2/5 342/2/5 345/2/5
f 347/3/5 345/3/5 344/3/5
f 348/3/5 345/3/5 347/3/5
f 353/3/5 350/3/5 349/3/5
f 354/3/5 350/3/5 353/3/5
f 355/2/5 352/2/5 351/2/5
f 356/2/5 352/2/5 355/2/5
f 359/3/5 358/3/5 357/3/5
f 360/3/5 358/3/5 359/3/5
f 365/3/5 362/3/5 361/3/5
f 366/3/5 362/3/5 365/3/5
f 367/2/5 364/2/5 363/2/5
f 368/2/5 364/2/5 367/2/5
f 371/3/5 370/3/5 369/3/5
f 372/3/5 370/3/5 371/3/5
f 375/3/5 374/3/5 373/3/5
f 376/3/5 374/3/5 375/3/5
f 379/3/5 378/3/5 377/3/5
f 380/3/5 378/3/5 379/3/5
f 385/3/5 382/3/5 381/3/5
f 386/3/5 382/3/5 385/3/5
f 387/1/5 384/1/5 383/1/5
f 388/1/5 384/1/5 387/1/5
f 391/3/5 390/3/5 389/3/5
f 392/3/5 390/3/5 391/3/5
f 395/3/5 394/3/5 393/3/5
f 396/3/5 394/3/5 395/3/5
f 399/3/5 398/3/5 397/3/5
f 400/3/5 398/3/5 399/3/5
f 403/1/5 402/1/5 401/1/5
f 404/1/5 402/1/5 403/1/5
f 407/1/5 406/1/5 405/1/5
f 408/1/5 406/1/5 407/1/5
f 411/1/5 410/1/5 409/1/5
f 412/1/5 410/1/5 411/1/5
f 413/3/6 414/3/6 415/3/6
f 415/3/6 414/3/6 416/3/6
f 417/2/6 418/2/6 421/2/6
f 421/2/6 418/2/6 422/2/6
f 419/3/6 420/3/6 423/3/6
f 423/3/6 420/3/6 424/3/6
f 425/3/6 426/3/6 427/3/6
f 427/3/6 426/3/6 428/3/6
f 429/2/6 430/2/6 433/2/6
f 433/2/6 430/2/6 434/2/6
f 431/3/6 432/3/6 435/3/6
f 435/3/6 432/3/6 436/3/6
f 437/3/6 438/3/6 439/3/6
f 439/3/6 438/3/6 440/3/6
f 441/2/6 442/2/6 445/2/6
f 445/2/6 442/2/6 446/2/6
f 443/3/6 444/3/6 447/3/6
f 447/3/6 444/3/6 448/3/6
f 449/3/6 450/3/6 451/3/6
f 451/3/6 450/3/6 452/3/6
f 453/2/6 454/2/6 457/2/6
f 457/2/6 454/2/6 458/2/6
f 455/3/6 456/3/6 459/3/6
f 459/3/6 456/3/6 460/3/6
f 461/3/6 462/3/6 465/3/6
f 465/3/6 462/3/6 466/3/6
f 463/1/6 464/1/6 469/1/6
f 469/1/6 464/1/6 470/1/6
f 467/2/6 468/2/6 473/2/6
f 473/2/6 468/2/6 474/2/6
f 471/3/6 472/3/6 475/3/6
f 475/3/6 472/3/6 476/3/6
f 477/3/6 478/3/6 479/3/6
f 479/3/6 478/3/6 480/3/6
f 481/2/6 482/2/6 485/2/6
f 485/2/6 482/2/6 486/2/6
f 483/3/6 484/3/6 487/3/6
f 487/3/6 484/3/6 488/3/6
f 489/2/6 490/2/6 491/2/6
f 491/2/6 490/2/6 492/2/6
f 493/1/6 494/1/6 495/1/6
f 495/1/6 494/1/6 496/1/6
f 497/1/6 498/1/6 501/1/6
f 501/1/6 498/1/6 502/1/6
f 499/1/6 500/1/6 503/1/6
f 503/1/6 500/1/6 504/1/6
f 505/1/6 506/1/6 507/1/6
f 507/1/6 506/1/6 508/1/6
f 509/1/6 510/1/6 511/1/6
f 511/1/6 510/1/6 512/1/6
