# MagicaVoxel @ Ephtracy

# group
o 

# material
mtllib 30sign.mtl
usemtl palette

# normals
vn -1 0 0
vn 1 0 0
vn 0 0 1
vn 0 0 -1
vn 0 -1 0
vn 0 1 0

# texcoords
vt 0.00195312 0.5
vt 0.845703 0.5
vt 0.958984 0.5
vt 0.970703 0.5
vt 0.978516 0.5

# verts
v -0.8 1.1 0.2
v -0.8 1.1 0.1
v -0.8 1.1 -0.1
v -0.8 2.1 0.2
v -0.8 2.1 0.1
v -0.8 2.1 -0.1
v -0.7 0.9 0.2
v -0.7 0.9 0.1
v -0.7 0.9 -0.1
v -0.7 1.1 0.2
v -0.7 1.1 0.1
v -0.7 1.1 -0.1
v -0.7 2.1 0.2
v -0.7 2.1 0.1
v -0.7 2.1 -0.1
v -0.7 2.3 0.2
v -0.7 2.3 0.1
v -0.7 2.3 -0.1
v -0.6 0.8 0.2
v -0.6 0.8 0.1
v -0.6 0.8 -0.1
v -0.6 0.9 0.2
v -0.6 0.9 0.1
v -0.6 0.9 -0.1
v -0.6 2.3 0.2
v -0.6 2.3 0.1
v -0.6 2.3 -0.1
v -0.6 2.4 0.2
v -0.6 2.4 0.1
v -0.6 2.4 -0.1
v -0.5 0.7 0.2
v -0.5 0.7 0.1
v -0.5 0.7 -0.1
v -0.5 0.8 0.2
v -0.5 0.8 0.1
v -0.5 0.8 -0.1
v -0.2 -2.4 0.1
v -0.2 -2.4 -0.3
v -0.2 -2.3 0.1
v -0.2 -2.3 -0.3
v -0.1 -2.3 0
v -0.1 -2.3 -0.2
v -0.1 0.7 0
v -0.1 0.7 -0.1
v -0.1 2.2 -0.1
v -0.1 2.2 -0.2
v 0.2 0.7 0
v 0.2 0.7 -0.1
v 0.2 0.8 0
v 0.2 2.2 0
v 0.2 2.2 -0.1
v 0.6 0.8 0.1
v 0.6 0.8 0
v 0.6 0.9 0.1
v 0.6 0.9 0
v 0.7 0.9 0.1
v 0.7 0.9 0
v 0.7 1 0.1
v 0.7 1.1 0.1
v 0.7 1.1 0
v 0.7 2.1 0.1
v 0.7 2.1 0
v 0.7 2.2 0.1
v 0.7 2.3 0.1
v 0.7 2.3 0
v 0.8 1.1 0.1
v 0.8 1.1 0
v 0.8 2.1 0.1
v 0.8 2.1 0
v -0.7 1.1 0.1
v -0.7 1.1 0
v -0.7 2.1 0.1
v -0.7 2.1 0
v -0.6 0.9 0.1
v -0.6 0.9 0
v -0.6 1 0.1
v -0.6 1.1 0.1
v -0.6 1.1 0
v -0.6 2.1 0.1
v -0.6 2.1 0
v -0.6 2.2 0.1
v -0.6 2.3 0.1
v -0.6 2.3 0
v -0.5 0.8 0.1
v -0.5 0.8 0
v -0.5 0.9 0.1
v -0.5 0.9 0
v -0.1 0.7 0
v -0.1 0.7 -0.1
v -0.1 0.8 0
v -0.1 2.2 0
v -0.1 2.2 -0.1
v 0.2 -2.3 0
v 0.2 -2.3 -0.2
v 0.2 0.7 0
v 0.2 0.7 -0.1
v 0.2 2.2 -0.1
v 0.2 2.2 -0.2
v 0.3 -2.4 0.1
v 0.3 -2.4 -0.3
v 0.3 -2.3 0.1
v 0.3 -2.3 -0.3
v 0.6 0.7 0.2
v 0.6 0.7 0.1
v 0.6 0.7 -0.1
v 0.6 0.8 0.2
v 0.6 0.8 0.1
v 0.6 0.8 -0.1
v 0.7 0.8 0.2
v 0.7 0.8 0.1
v 0.7 0.8 -0.1
v 0.7 0.9 0.2
v 0.7 0.9 0.1
v 0.7 0.9 -0.1
v 0.7 2.3 0.2
v 0.7 2.3 0.1
v 0.7 2.3 -0.1
v 0.7 2.4 0.2
v 0.7 2.4 0.1
v 0.7 2.4 -0.1
v 0.8 0.9 0.2
v 0.8 0.9 0.1
v 0.8 0.9 -0.1
v 0.8 1.1 0.2
v 0.8 1.1 0.1
v 0.8 1.1 -0.1
v 0.8 2.1 0.2
v 0.8 2.1 0.1
v 0.8 2.1 -0.1
v 0.8 2.3 0.2
v 0.8 2.3 0.1
v 0.8 2.3 -0.1
v 0.9 1.1 0.2
v 0.9 1.1 0.1
v 0.9 1.1 -0.1
v 0.9 2.1 0.2
v 0.9 2.1 0.1
v 0.9 2.1 -0.1
v -0.8 1.1 0.2
v -0.8 2.1 0.2
v -0.7 0.9 0.2
v -0.7 1.1 0.2
v -0.7 2.1 0.2
v -0.7 2.3 0.2
v -0.6 0.8 0.2
v -0.6 0.9 0.2
v -0.6 1 0.2
v -0.6 2.2 0.2
v -0.6 2.3 0.2
v -0.6 2.4 0.2
v -0.5 0.7 0.2
v -0.5 0.8 0.2
v -0.5 1.1 0.2
v -0.5 1.2 0.2
v -0.5 1.9 0.2
v -0.5 2 0.2
v -0.4 0.8 0.2
v -0.4 1 0.2
v -0.4 1.5 0.2
v -0.4 1.6 0.2
v -0.1 1.2 0.2
v -0.1 1.5 0.2
v -0.1 1.6 0.2
v -0.1 1.9 0.2
v -0.1 2 0.2
v 0 1.1 0.2
v 0 1.9 0.2
v 0.1 1.3 0.2
v 0.1 1.9 0.2
v 0.2 1.2 0.2
v 0.2 1.3 0.2
v 0.2 1.9 0.2
v 0.2 2 0.2
v 0.5 0.8 0.2
v 0.5 1 0.2
v 0.5 1.2 0.2
v 0.5 1.3 0.2
v 0.5 1.9 0.2
v 0.5 2 0.2
v 0.6 0.7 0.2
v 0.6 0.8 0.2
v 0.6 1.3 0.2
v 0.6 1.9 0.2
v 0.7 0.8 0.2
v 0.7 0.9 0.2
v 0.7 1 0.2
v 0.7 2.2 0.2
v 0.7 2.3 0.2
v 0.7 2.4 0.2
v 0.8 0.9 0.2
v 0.8 1.1 0.2
v 0.8 2.1 0.2
v 0.8 2.3 0.2
v 0.9 1.1 0.2
v 0.9 2.1 0.2
v -0.2 -2.4 0.1
v -0.2 -2.3 0.1
v 0.3 -2.4 0.1
v 0.3 -2.3 0.1
v -0.7 1.1 0
v -0.7 2.1 0
v -0.6 0.9 0
v -0.6 1.1 0
v -0.6 2.1 0
v -0.6 2.3 0
v -0.5 0.8 0
v -0.5 0.9 0
v -0.1 -2.3 0
v -0.1 0.7 0
v -0.1 0.8 0
v -0.1 2.2 0
v 0.2 -2.3 0
v 0.2 0.7 0
v 0.2 0.8 0
v 0.2 2.2 0
v 0.6 0.8 0
v 0.6 0.9 0
v 0.7 0.9 0
v 0.7 1.1 0
v 0.7 2.1 0
v 0.7 2.3 0
v 0.8 1.1 0
v 0.8 2.1 0
v -0.1 0.7 -0.1
v -0.1 2.2 -0.1
v 0.2 0.7 -0.1
v 0.2 2.2 -0.1
v -0.7 1.1 0.1
v -0.7 2.1 0.1
v -0.6 0.9 0.1
v -0.6 1 0.1
v -0.6 1.1 0.1
v -0.6 2.1 0.1
v -0.6 2.2 0.1
v -0.6 2.3 0.1
v -0.5 0.8 0.1
v -0.5 0.9 0.1
v -0.5 1.1 0.1
v -0.5 1.2 0.1
v -0.5 1.9 0.1
v -0.5 2 0.1
v -0.4 0.8 0.1
v -0.4 1 0.1
v -0.4 1.5 0.1
v -0.4 1.6 0.1
v -0.1 1.2 0.1
v -0.1 1.5 0.1
v -0.1 1.6 0.1
v -0.1 1.9 0.1
v -0.1 2 0.1
v 0 1.1 0.1
v 0 1.9 0.1
v 0.1 1.3 0.1
v 0.1 1.9 0.1
v 0.2 1.2 0.1
v 0.2 1.3 0.1
v 0.2 1.9 0.1
v 0.2 2 0.1
v 0.5 0.8 0.1
v 0.5 1 0.1
v 0.5 1.2 0.1
v 0.5 1.3 0.1
v 0.5 1.9 0.1
v 0.5 2 0.1
v 0.6 0.8 0.1
v 0.6 0.9 0.1
v 0.6 1.3 0.1
v 0.6 1.9 0.1
v 0.7 0.9 0.1
v 0.7 1 0.1
v 0.7 1.1 0.1
v 0.7 2.1 0.1
v 0.7 2.2 0.1
v 0.7 2.3 0.1
v 0.8 1.1 0.1
v 0.8 2.1 0.1
v -0.1 0.7 0
v -0.1 0.8 0
v 0.2 0.7 0
v 0.2 0.8 0
v -0.8 1.1 -0.1
v -0.8 2.1 -0.1
v -0.7 0.9 -0.1
v -0.7 1.1 -0.1
v -0.7 2.1 -0.1
v -0.7 2.3 -0.1
v -0.6 0.8 -0.1
v -0.6 0.9 -0.1
v -0.6 2.3 -0.1
v -0.6 2.4 -0.1
v -0.5 0.7 -0.1
v -0.5 0.8 -0.1
v -0.1 0.7 -0.1
v -0.1 2.2 -0.1
v 0.2 0.7 -0.1
v 0.2 2.2 -0.1
v 0.6 0.7 -0.1
v 0.6 0.8 -0.1
v 0.7 0.8 -0.1
v 0.7 0.9 -0.1
v 0.7 2.3 -0.1
v 0.7 2.4 -0.1
v 0.8 0.9 -0.1
v 0.8 1.1 -0.1
v 0.8 2.1 -0.1
v 0.8 2.3 -0.1
v 0.9 1.1 -0.1
v 0.9 2.1 -0.1
v -0.1 -2.3 -0.2
v -0.1 2.2 -0.2
v 0.2 -2.3 -0.2
v 0.2 2.2 -0.2
v -0.2 -2.4 -0.3
v -0.2 -2.3 -0.3
v 0.3 -2.4 -0.3
v 0.3 -2.3 -0.3
v -0.2 -2.4 0.1
v 0.3 -2.4 0.1
v -0.2 -2.4 -0.3
v 0.3 -2.4 -0.3
v -0.5 0.7 0.2
v 0.6 0.7 0.2
v -0.5 0.7 0.1
v 0.6 0.7 0.1
v -0.1 0.7 0
v 0.2 0.7 0
v -0.5 0.7 -0.1
v -0.1 0.7 -0.1
v 0.2 0.7 -0.1
v 0.6 0.7 -0.1
v -0.6 0.8 0.2
v -0.5 0.8 0.2
v 0.6 0.8 0.2
v 0.7 0.8 0.2
v -0.6 0.8 0.1
v -0.5 0.8 0.1
v 0.6 0.8 0.1
v 0.7 0.8 0.1
v -0.6 0.8 -0.1
v -0.5 0.8 -0.1
v 0.6 0.8 -0.1
v 0.7 0.8 -0.1
v -0.7 0.9 0.2
v -0.6 0.9 0.2
v 0.7 0.9 0.2
v 0.8 0.9 0.2
v -0.7 0.9 0.1
v -0.6 0.9 0.1
v 0.7 0.9 0.1
v 0.8 0.9 0.1
v -0.7 0.9 -0.1
v -0.6 0.9 -0.1
v 0.7 0.9 -0.1
v 0.8 0.9 -0.1
v -0.8 1.1 0.2
v -0.7 1.1 0.2
v 0.8 1.1 0.2
v 0.9 1.1 0.2
v -0.8 1.1 0.1
v -0.7 1.1 0.1
v 0.8 1.1 0.1
v 0.9 1.1 0.1
v -0.8 1.1 -0.1
v -0.7 1.1 -0.1
v 0.8 1.1 -0.1
v 0.9 1.1 -0.1
v -0.7 2.1 0.1
v -0.6 2.1 0.1
v 0.7 2.1 0.1
v 0.8 2.1 0.1
v -0.7 2.1 0
v -0.6 2.1 0
v 0.7 2.1 0
v 0.8 2.1 0
v -0.1 2.2 0
v 0.2 2.2 0
v -0.1 2.2 -0.1
v 0.2 2.2 -0.1
v -0.6 2.3 0.1
v 0.7 2.3 0.1
v -0.6 2.3 0
v 0.7 2.3 0
v -0.2 -2.3 0.1
v 0.3 -2.3 0.1
v -0.1 -2.3 0
v 0.2 -2.3 0
v -0.1 -2.3 -0.2
v 0.2 -2.3 -0.2
v -0.2 -2.3 -0.3
v 0.3 -2.3 -0.3
v -0.1 0.7 0
v 0.2 0.7 0
v -0.1 0.7 -0.1
v 0.2 0.7 -0.1
v -0.5 0.8 0.1
v -0.4 0.8 0.1
v 0.5 0.8 0.1
v 0.6 0.8 0.1
v -0.5 0.8 0
v -0.1 0.8 0
v 0.2 0.8 0
v 0.6 0.8 0
v -0.6 0.9 0.1
v -0.5 0.9 0.1
v 0.6 0.9 0.1
v 0.7 0.9 0.1
v -0.6 0.9 0
v -0.5 0.9 0
v 0.6 0.9 0
v 0.7 0.9 0
v -0.7 1.1 0.1
v -0.6 1.1 0.1
v 0.7 1.1 0.1
v 0.8 1.1 0.1
v -0.7 1.1 0
v -0.6 1.1 0
v 0.7 1.1 0
v 0.8 1.1 0
v -0.8 2.1 0.2
v -0.7 2.1 0.2
v 0.8 2.1 0.2
v 0.9 2.1 0.2
v -0.8 2.1 0.1
v -0.7 2.1 0.1
v 0.8 2.1 0.1
v 0.9 2.1 0.1
v -0.8 2.1 -0.1
v -0.7 2.1 -0.1
v 0.8 2.1 -0.1
v 0.9 2.1 -0.1
v -0.1 2.2 -0.1
v 0.2 2.2 -0.1
v -0.1 2.2 -0.2
v 0.2 2.2 -0.2
v -0.7 2.3 0.2
v -0.6 2.3 0.2
v 0.7 2.3 0.2
v 0.8 2.3 0.2
v -0.7 2.3 0.1
v -0.6 2.3 0.1
v 0.7 2.3 0.1
v 0.8 2.3 0.1
v -0.7 2.3 -0.1
v -0.6 2.3 -0.1
v 0.7 2.3 -0.1
v 0.8 2.3 -0.1
v -0.6 2.4 0.2
v 0.7 2.4 0.2
v -0.6 2.4 0.1
v 0.7 2.4 0.1
v -0.6 2.4 -0.1
v 0.7 2.4 -0.1

# faces
f 4/4/1 2/4/1 1/4/1
f 5/1/1 3/1/1 2/1/1
f 5/4/1 2/4/1 4/4/1
f 6/1/1 3/1/1 5/1/1
f 10/4/1 8/4/1 7/4/1
f 11/1/1 9/1/1 8/1/1
f 11/4/1 8/4/1 10/4/1
f 12/1/1 9/1/1 11/1/1
f 16/4/1 14/4/1 13/4/1
f 17/1/1 15/1/1 14/1/1
f 17/4/1 14/4/1 16/4/1
f 18/1/1 15/1/1 17/1/1
f 22/4/1 20/4/1 19/4/1
f 23/1/1 21/1/1 20/1/1
f 23/4/1 20/4/1 22/4/1
f 24/1/1 21/1/1 23/1/1
f 28/4/1 26/4/1 25/4/1
f 29/1/1 27/1/1 26/1/1
f 29/4/1 26/4/1 28/4/1
f 30/1/1 27/1/1 29/1/1
f 34/4/1 32/4/1 31/4/1
f 35/1/1 33/1/1 32/1/1
f 35/4/1 32/4/1 34/4/1
f 36/1/1 33/1/1 35/1/1
f 39/5/1 38/5/1 37/5/1
f 40/5/1 38/5/1 39/5/1
f 43/5/1 42/5/1 41/5/1
f 44/5/1 42/5/1 43/5/1
f 45/5/1 42/5/1 44/5/1
f 46/5/1 42/5/1 45/5/1
f 49/1/1 48/1/1 47/1/1
f 50/1/1 48/1/1 49/1/1
f 51/1/1 48/1/1 50/1/1
f 54/1/1 53/1/1 52/1/1
f 55/1/1 53/1/1 54/1/1
f 58/1/1 57/1/1 56/1/1
f 59/1/1 57/1/1 58/1/1
f 60/1/1 57/1/1 59/1/1
f 63/1/1 62/1/1 61/1/1
f 64/1/1 62/1/1 63/1/1
f 65/1/1 62/1/1 64/1/1
f 68/1/1 67/1/1 66/1/1
f 69/1/1 67/1/1 68/1/1
f 70/1/2 71/1/2 72/1/2
f 72/1/2 71/1/2 73/1/2
f 74/1/2 75/1/2 76/1/2
f 76/1/2 75/1/2 77/1/2
f 77/1/2 75/1/2 78/1/2
f 79/1/2 80/1/2 81/1/2
f 81/1/2 80/1/2 82/1/2
f 82/1/2 80/1/2 83/1/2
f 84/1/2 85/1/2 86/1/2
f 86/1/2 85/1/2 87/1/2
f 88/1/2 89/1/2 90/1/2
f 90/1/2 89/1/2 91/1/2
f 91/1/2 89/1/2 92/1/2
f 93/5/2 94/5/2 95/5/2
f 95/5/2 94/5/2 96/5/2
f 96/5/2 94/5/2 97/5/2
f 97/5/2 94/5/2 98/5/2
f 99/5/2 100/5/2 101/5/2
f 101/5/2 100/5/2 102/5/2
f 103/4/2 104/4/2 106/4/2
f 104/1/2 105/1/2 107/1/2
f 106/4/2 104/4/2 107/4/2
f 107/1/2 105/1/2 108/1/2
f 109/4/2 110/4/2 112/4/2
f 110/1/2 111/1/2 113/1/2
f 112/4/2 110/4/2 113/4/2
f 113/1/2 111/1/2 114/1/2
f 115/4/2 116/4/2 118/4/2
f 116/1/2 117/1/2 119/1/2
f 118/4/2 116/4/2 119/4/2
f 119/1/2 117/1/2 120/1/2
f 121/4/2 122/4/2 124/4/2
f 122/1/2 123/1/2 125/1/2
f 124/4/2 122/4/2 125/4/2
f 125/1/2 123/1/2 126/1/2
f 127/4/2 128/4/2 130/4/2
f 128/1/2 129/1/2 131/1/2
f 130/4/2 128/4/2 131/4/2
f 131/1/2 129/1/2 132/1/2
f 133/4/2 134/4/2 136/4/2
f 134/1/2 135/1/2 137/1/2
f 136/4/2 134/4/2 137/4/2
f 137/1/2 135/1/2 138/1/2
f 142/4/3 140/4/3 139/4/3
f 143/4/3 140/4/3 142/4/3
f 146/4/3 142/4/3 141/4/3
f 146/4/3 144/4/3 143/4/3
f 146/4/3 143/4/3 142/4/3
f 147/4/3 144/4/3 146/4/3
f 148/4/3 144/4/3 147/4/3
f 149/4/3 144/4/3 148/4/3
f 152/4/3 146/4/3 145/4/3
f 152/4/3 147/4/3 146/4/3
f 153/2/3 148/2/3 147/2/3
f 154/2/3 148/2/3 153/2/3
f 155/2/3 148/2/3 154/2/3
f 156/2/3 148/2/3 155/2/3
f 157/4/3 152/4/3 151/4/3
f 157/4/3 147/4/3 152/4/3
f 158/2/3 153/2/3 147/2/3
f 158/4/3 147/4/3 157/4/3
f 159/2/3 155/2/3 154/2/3
f 160/2/3 155/2/3 159/2/3
f 161/3/3 154/3/3 153/3/3
f 161/2/3 159/2/3 154/2/3
f 162/3/3 160/3/3 159/3/3
f 162/2/3 159/2/3 161/2/3
f 163/2/3 155/2/3 160/2/3
f 163/3/3 160/3/3 162/3/3
f 164/3/3 156/3/3 155/3/3
f 164/2/3 155/2/3 163/2/3
f 165/2/3 148/2/3 156/2/3
f 165/3/3 156/3/3 164/3/3
f 166/3/3 164/3/3 163/3/3
f 166/3/3 163/3/3 162/3/3
f 166/3/3 162/3/3 161/3/3
f 166/3/3 161/3/3 153/3/3
f 166/2/3 158/2/3 157/2/3
f 166/2/3 153/2/3 158/2/3
f 167/2/3 165/2/3 164/2/3
f 167/3/3 164/3/3 166/3/3
f 168/2/3 167/2/3 166/2/3
f 169/2/3 165/2/3 167/2/3
f 169/2/3 167/2/3 168/2/3
f 170/2/3 168/2/3 166/2/3
f 171/3/3 169/3/3 168/3/3
f 171/2/3 168/2/3 170/2/3
f 172/2/3 165/2/3 169/2/3
f 172/3/3 169/3/3 171/3/3
f 173/2/3 148/2/3 165/2/3
f 173/2/3 165/2/3 172/2/3
f 174/2/3 166/2/3 157/2/3
f 174/4/3 157/4/3 151/4/3
f 174/2/3 170/2/3 166/2/3
f 175/2/3 170/2/3 174/2/3
f 176/3/3 171/3/3 170/3/3
f 176/2/3 170/2/3 175/2/3
f 177/2/3 172/2/3 171/2/3
f 177/3/3 171/3/3 176/3/3
f 178/3/3 173/3/3 172/3/3
f 178/2/3 172/2/3 177/2/3
f 179/2/3 148/2/3 173/2/3
f 179/3/3 173/3/3 178/3/3
f 180/4/3 175/4/3 174/4/3
f 180/4/3 174/4/3 151/4/3
f 181/4/3 175/4/3 180/4/3
f 182/2/3 176/2/3 175/2/3
f 182/3/3 178/3/3 177/3/3
f 182/2/3 177/2/3 176/2/3
f 183/2/3 179/2/3 178/2/3
f 183/3/3 178/3/3 182/3/3
f 184/4/3 175/4/3 181/4/3
f 185/4/3 175/4/3 184/4/3
f 186/2/3 183/2/3 182/2/3
f 186/4/3 175/4/3 185/4/3
f 186/2/3 182/2/3 175/2/3
f 187/4/3 150/4/3 149/4/3
f 187/2/3 183/2/3 186/2/3
f 187/4/3 149/4/3 148/4/3
f 187/2/3 179/2/3 183/2/3
f 187/2/3 148/2/3 179/2/3
f 188/4/3 150/4/3 187/4/3
f 189/4/3 150/4/3 188/4/3
f 190/4/3 186/4/3 185/4/3
f 190/4/3 188/4/3 187/4/3
f 190/4/3 187/4/3 186/4/3
f 191/4/3 188/4/3 190/4/3
f 192/4/3 188/4/3 191/4/3
f 193/4/3 188/4/3 192/4/3
f 194/4/3 192/4/3 191/4/3
f 195/4/3 192/4/3 194/4/3
f 198/5/3 197/5/3 196/5/3
f 199/5/3 197/5/3 198/5/3
f 203/1/3 201/1/3 200/1/3
f 204/1/3 201/1/3 203/1/3
f 207/1/3 203/1/3 202/1/3
f 207/1/3 205/1/3 204/1/3
f 207/1/3 204/1/3 203/1/3
f 210/1/3 207/1/3 206/1/3
f 211/1/3 205/1/3 207/1/3
f 211/1/3 207/1/3 210/1/3
f 212/5/3 209/5/3 208/5/3
f 213/5/3 209/5/3 212/5/3
f 215/1/3 205/1/3 211/1/3
f 216/1/3 215/1/3 214/1/3
f 217/1/3 215/1/3 216/1/3
f 218/1/3 215/1/3 217/1/3
f 219/1/3 215/1/3 218/1/3
f 220/1/3 215/1/3 219/1/3
f 221/1/3 205/1/3 215/1/3
f 221/1/3 215/1/3 220/1/3
f 222/1/3 220/1/3 219/1/3
f 223/1/3 220/1/3 222/1/3
f 226/5/3 225/5/3 224/5/3
f 227/5/3 225/5/3 226/5/3
f 228/4/4 229/4/4 232/4/4
f 232/4/4 229/4/4 233/4/4
f 230/4/4 231/4/4 237/4/4
f 231/2/4 232/2/4 238/2/4
f 232/2/4 233/2/4 238/2/4
f 233/2/4 234/2/4 238/2/4
f 238/2/4 234/2/4 239/2/4
f 239/2/4 234/2/4 240/2/4
f 240/2/4 234/2/4 241/2/4
f 236/4/4 237/4/4 242/4/4
f 237/4/4 231/4/4 243/4/4
f 242/4/4 237/4/4 243/4/4
f 231/2/4 238/2/4 243/2/4
f 239/2/4 240/2/4 244/2/4
f 244/2/4 240/2/4 245/2/4
f 238/3/4 239/3/4 246/3/4
f 239/2/4 244/2/4 246/2/4
f 244/3/4 245/3/4 247/3/4
f 246/2/4 244/2/4 247/2/4
f 245/2/4 240/2/4 248/2/4
f 247/3/4 245/3/4 248/3/4
f 240/3/4 241/3/4 249/3/4
f 248/2/4 240/2/4 249/2/4
f 241/2/4 234/2/4 250/2/4
f 249/3/4 241/3/4 250/3/4
f 248/3/4 249/3/4 251/3/4
f 247/3/4 248/3/4 251/3/4
f 246/3/4 247/3/4 251/3/4
f 238/3/4 246/3/4 251/3/4
f 242/2/4 243/2/4 251/2/4
f 243/2/4 238/2/4 251/2/4
f 249/2/4 250/2/4 252/2/4
f 251/3/4 249/3/4 252/3/4
f 251/2/4 252/2/4 253/2/4
f 252/2/4 250/2/4 254/2/4
f 253/2/4 252/2/4 254/2/4
f 251/2/4 253/2/4 255/2/4
f 253/3/4 254/3/4 256/3/4
f 255/2/4 253/2/4 256/2/4
f 254/2/4 250/2/4 257/2/4
f 256/3/4 254/3/4 257/3/4
f 250/2/4 234/2/4 258/2/4
f 257/2/4 250/2/4 258/2/4
f 242/2/4 251/2/4 259/2/4
f 251/2/4 255/2/4 259/2/4
f 259/2/4 255/2/4 260/2/4
f 255/3/4 256/3/4 261/3/4
f 260/2/4 255/2/4 261/2/4
f 256/2/4 257/2/4 262/2/4
f 261/3/4 256/3/4 262/3/4
f 257/3/4 258/3/4 263/3/4
f 262/2/4 257/2/4 263/2/4
f 258/2/4 234/2/4 264/2/4
f 263/3/4 258/3/4 264/3/4
f 259/4/4 260/4/4 265/4/4
f 265/4/4 260/4/4 266/4/4
f 260/2/4 261/2/4 267/2/4
f 262/3/4 263/3/4 267/3/4
f 261/2/4 262/2/4 267/2/4
f 263/2/4 264/2/4 268/2/4
f 267/3/4 263/3/4 268/3/4
f 266/4/4 260/4/4 269/4/4
f 267/2/4 268/2/4 270/2/4
f 269/4/4 260/4/4 270/4/4
f 260/2/4 267/2/4 270/2/4
f 270/2/4 268/2/4 271/2/4
f 268/2/4 264/2/4 272/2/4
f 271/2/4 268/2/4 272/2/4
f 264/2/4 234/2/4 272/2/4
f 234/4/4 235/4/4 273/4/4
f 272/2/4 234/2/4 273/2/4
f 273/4/4 235/4/4 274/4/4
f 271/4/4 272/4/4 275/4/4
f 275/4/4 272/4/4 276/4/4
f 277/1/4 278/1/4 279/1/4
f 279/1/4 278/1/4 280/1/4
f 281/1/4 282/1/4 284/1/4
f 284/1/4 282/1/4 285/1/4
f 283/1/4 284/1/4 288/1/4
f 285/1/4 286/1/4 288/1/4
f 284/1/4 285/1/4 288/1/4
f 288/1/4 286/1/4 289/1/4
f 287/1/4 288/1/4 292/1/4
f 289/1/4 290/1/4 292/1/4
f 288/1/4 289/1/4 292/1/4
f 291/1/4 292/1/4 293/1/4
f 292/1/4 290/1/4 294/1/4
f 293/1/4 292/1/4 294/1/4
f 294/1/4 290/1/4 296/1/4
f 295/1/4 296/1/4 297/1/4
f 297/1/4 296/1/4 298/1/4
f 298/1/4 296/1/4 299/1/4
f 299/1/4 296/1/4 300/1/4
f 296/1/4 290/1/4 301/1/4
f 300/1/4 296/1/4 301/1/4
f 301/1/4 290/1/4 302/1/4
f 300/1/4 301/1/4 303/1/4
f 303/1/4 301/1/4 304/1/4
f 304/1/4 301/1/4 305/1/4
f 305/1/4 301/1/4 306/1/4
f 304/1/4 305/1/4 307/1/4
f 307/1/4 305/1/4 308/1/4
f 309/5/4 310/5/4 311/5/4
f 311/5/4 310/5/4 312/5/4
f 313/5/4 314/5/4 315/5/4
f 315/5/4 314/5/4 316/5/4
f 319/5/5 318/5/5 317/5/5
f 320/5/5 318/5/5 319/5/5
f 323/4/5 322/4/5 321/4/5
f 324/4/5 322/4/5 323/4/5
f 325/1/5 324/1/5 323/1/5
f 326/1/5 324/1/5 325/1/5
f 327/1/5 325/1/5 323/1/5
f 328/1/5 325/1/5 327/1/5
f 329/1/5 324/1/5 326/1/5
f 330/1/5 324/1/5 329/1/5
f 335/4/5 332/4/5 331/4/5
f 336/4/5 332/4/5 335/4/5
f 337/4/5 334/4/5 333/4/5
f 338/4/5 334/4/5 337/4/5
f 339/1/5 336/1/5 335/1/5
f 340/1/5 336/1/5 339/1/5
f 341/1/5 338/1/5 337/1/5
f 342/1/5 338/1/5 341/1/5
f 347/4/5 344/4/5 343/4/5
f 348/4/5 344/4/5 347/4/5
f 349/4/5 346/4/5 345/4/5
f 350/4/5 346/4/5 349/4/5
f 351/1/5 348/1/5 347/1/5
f 352/1/5 348/1/5 351/1/5
f 353/1/5 350/1/5 349/1/5
f 354/1/5 350/1/5 353/1/5
f 359/4/5 356/4/5 355/4/5
f 360/4/5 356/4/5 359/4/5
f 361/4/5 358/4/5 357/4/5
f 362/4/5 358/4/5 361/4/5
f 363/1/5 360/1/5 359/1/5
f 364/1/5 360/1/5 363/1/5
f 365/1/5 362/1/5 361/1/5
f 366/1/5 362/1/5 365/1/5
f 371/1/5 368/1/5 367/1/5
f 372/1/5 368/1/5 371/1/5
f 373/1/5 370/1/5 369/1/5
f 374/1/5 370/1/5 373/1/5
f 377/1/5 376/1/5 375/1/5
f 378/1/5 376/1/5 377/1/5
f 381/1/5 380/1/5 379/1/5
f 382/1/5 380/1/5 381/1/5
f 383/5/6 384/5/6 385/5/6
f 385/5/6 384/5/6 386/5/6
f 383/5/6 385/5/6 387/5/6
f 386/5/6 384/5/6 388/5/6
f 383/5/6 387/5/6 389/5/6
f 387/5/6 388/5/6 389/5/6
f 388/5/6 384/5/6 390/5/6
f 389/5/6 388/5/6 390/5/6
f 391/5/6 392/5/6 393/5/6
f 393/5/6 392/5/6 394/5/6
f 395/1/6 396/1/6 399/1/6
f 397/1/6 398/1/6 399/1/6
f 396/1/6 397/1/6 399/1/6
f 399/1/6 398/1/6 400/1/6
f 400/1/6 398/1/6 401/1/6
f 401/1/6 398/1/6 402/1/6
f 403/1/6 404/1/6 407/1/6
f 407/1/6 404/1/6 408/1/6
f 405/1/6 406/1/6 409/1/6
f 409/1/6 406/1/6 410/1/6
f 411/1/6 412/1/6 415/1/6
f 415/1/6 412/1/6 416/1/6
f 413/1/6 414/1/6 417/1/6
f 417/1/6 414/1/6 418/1/6
f 419/4/6 420/4/6 423/4/6
f 423/4/6 420/4/6 424/4/6
f 421/4/6 422/4/6 425/4/6
f 425/4/6 422/4/6 426/4/6
f 423/1/6 424/1/6 427/1/6
f 427/1/6 424/1/6 428/1/6
f 425/1/6 426/1/6 429/1/6
f 429/1/6 426/1/6 430/1/6
f 431/5/6 432/5/6 433/5/6
f 433/5/6 432/5/6 434/5/6
f 435/4/6 436/4/6 439/4/6
f 439/4/6 436/4/6 440/4/6
f 437/4/6 438/4/6 441/4/6
f 441/4/6 438/4/6 442/4/6
f 439/1/6 440/1/6 443/1/6
f 443/1/6 440/1/6 444/1/6
f 441/1/6 442/1/6 445/1/6
f 445/1/6 442/1/6 446/1/6
f 447/4/6 448/4/6 449/4/6
f 449/4/6 448/4/6 450/4/6
f 449/1/6 450/1/6 451/1/6
f 451/1/6 450/1/6 452/1/6
