# MagicaVoxel @ Ephtracy

# group
o 

# material
mtllib container.mtl
usemtl palette

# normals
vn -1 0 0
vn 1 0 0
vn 0 0 1
vn 0 0 -1
vn 0 -1 0
vn 0 1 0

# texcoords
vt 0.537109 0.5
vt 0.767578 0.5
vt 0.880859 0.5
vt 0.904297 0.5
vt 0.908203 0.5
vt 0.982422 0.5
vt 0.986328 0.5
vt 0.994141 0.5

# verts
v -1 0 1.9
v -1 0 -1.6
v -1 0 -1.7
v -1 0 -1.9
v -1 0.1 2
v -1 0.1 1.9
v -1 0.1 1.8
v -1 0.1 -1.6
v -1 0.1 -1.7
v -1 0.1 -1.9
v -1 0.1 -2
v -1 0.2 1.9
v -1 0.2 1.8
v -1 0.2 1.3
v -1 0.2 1.2
v -1 0.2 0.2
v -1 0.2 0.0999999
v -1 0.2 -1.7
v -1 0.2 -1.8
v -1 0.3 2
v -1 0.3 1.9
v -1 0.3 1.8
v -1 0.3 1.7
v -1 0.3 1.6
v -1 0.3 1.4
v -1 0.3 1.3
v -1 0.3 1.2
v -1 0.3 1
v -1 0.3 0.8
v -1 0.3 0.6
v -1 0.3 0.4
v -1 0.3 0.2
v -1 0.3 0.0999999
v -1 0.3 -2.38419e-07
v -1 0.3 -0.2
v -1 0.3 -0.4
v -1 0.3 -0.6
v -1 0.3 -0.8
v -1 0.3 -1
v -1 0.3 -1.2
v -1 0.3 -1.4
v -1 0.3 -1.6
v -1 0.3 -1.8
v -1 0.3 -1.9
v -1 0.4 0.4
v -1 0.4 0.3
v -1 0.4 -1.5
v -1 0.4 -1.6
v -1 0.5 0.4
v -1 0.5 0.3
v -1 0.5 -1.5
v -1 0.5 -1.6
v -1 0.5 -1.7
v -1 0.5 -1.8
v -1 0.5 -1.9
v -1 0.5 -2
v -1 0.6 1.7
v -1 0.6 1.6
v -1 0.6 0.7
v -1 0.6 0.6
v -1 0.6 -0.8
v -1 0.6 -0.9
v -1 0.6 -1.5
v -1 0.6 -1.6
v -1 0.6 -1.7
v -1 0.6 -1.8
v -1 0.7 1.7
v -1 0.7 1.6
v -1 0.7 0.7
v -1 0.7 0.6
v -1 0.7 -0.8
v -1 0.7 -0.9
v -1 0.7 -1.5
v -1 0.7 -1.6
v -1 0.8 1.8
v -1 0.8 1.7
v -1 0.9 1.8
v -1 0.9 1.7
v -1 0.9 1.6
v -1 0.9 1.5
v -1 0.9 1.4
v -1 0.9 1.2
v -1 0.9 -0.9
v -1 0.9 -1
v -1 1 1.8
v -1 1 1.7
v -1 1 1.6
v -1 1 1.5
v -1 1 1.3
v -1 1 1.2
v -1 1 -0.9
v -1 1 -1
v -1 1 -1.4
v -1 1 -1.5
v -1 1.1 1.8
v -1 1.1 1.7
v -1 1.1 1.4
v -1 1.1 1.3
v -1 1.1 1.2
v -1 1.2 1.8
v -1 1.2 1.7
v -1 1.2 1.6
v -1 1.2 1.4
v -1 1.2 1.2
v -1 1.2 1
v -1 1.2 0.9
v -1 1.2 0.8
v -1 1.2 0.6
v -1 1.2 0.4
v -1 1.2 0.3
v -1 1.2 0.2
v -1 1.2 -2.38419e-07
v -1 1.2 -0.2
v -1 1.2 -0.4
v -1 1.2 -0.6
v -1 1.2 -0.8
v -1 1.2 -1
v -1 1.2 -1.2
v -1 1.2 -1.4
v -1 1.2 -1.5
v -1 1.2 -1.6
v -1 1.2 -1.8
v -1 1.3 2
v -1 1.3 1.9
v -1 1.3 1
v -1 1.3 0.9
v -1 1.3 0.8
v -1 1.3 0.3
v -1 1.3 0.2
v -1 1.3 -0.6
v -1 1.3 -0.8
v -1 1.3 -1.6
v -1 1.3 -1.8
v -1 1.4 2
v -1 1.4 1.9
v -1 1.4 1.3
v -1 1.4 1.2
v -1 1.4 0.9
v -1 1.4 0.8
v -1 1.4 -0.6
v -1 1.4 -0.8
v -1 1.4 -1.4
v -1 1.4 -1.8
v -1 1.4 -2
v -1 1.5 2
v -1 1.5 -2
v -0.8 1.5 2
v -0.8 1.5 1.9
v -0.8 1.5 -1.9
v -0.8 1.5 -2
v -0.8 1.6 2
v -0.8 1.6 -2
v -0.8 1.7 2
v -0.8 1.7 -2
v -0.3 1.7 2
v -0.3 1.7 1.9
v -0.3 1.7 -2
v -0.3 1.8 2
v -0.3 1.8 -2
v 0.1 1.8 2
v 0.1 1.8 1.9
v 0.1 1.8 -2
v 0.1 1.9 2
v 0.1 1.9 -2
v 1.1 0 1.9
v 1.1 0 -1.9
v 1.1 0.1 1.9
v 1.1 0.1 -1.9
v 1.2 0.1 2
v 1.2 0.1 -2
v 1.2 1.3 2
v 1.2 1.3 -2
v 1.3 1.3 2
v 1.3 1.3 -2
v 1.3 1.4 2
v 1.3 1.4 -2
v 1.3 1.5 2
v 1.3 1.5 -2
v 1.3 1.8 2
v 1.3 1.8 -2
v 1.3 1.9 2
v 1.3 1.9 -2
v -1 0.1 2
v -1 0.3 2
v -1 1.3 2
v -1 1.4 2
v -1 1.5 2
v -0.9 0.1 2
v -0.9 0.3 2
v -0.9 1.3 2
v -0.9 1.4 2
v -0.8 1.5 2
v -0.8 1.6 2
v -0.8 1.7 2
v -0.7 1.5 2
v -0.7 1.6 2
v -0.3 1.7 2
v -0.3 1.8 2
v -0.2 1.6 2
v -0.2 1.7 2
v 0.1 1.8 2
v 0.1 1.9 2
v 0.3 1.7 2
v 0.3 1.8 2
v 1.2 0.1 2
v 1.2 1.3 2
v 1.3 1.3 2
v 1.3 1.4 2
v 1.3 1.5 2
v 1.3 1.8 2
v 1.3 1.9 2
v -1 0 1.9
v -1 0.1 1.9
v -0.9 0.1 1.9
v 1.1 0 1.9
v 1.1 0.1 1.9
v -1 0 -1.9
v -1 0.1 -1.9
v -0.9 0.1 -1.9
v 1.1 0 -1.9
v 1.1 0.1 -1.9
v -1 0.1 -2
v -1 0.5 -2
v -1 1.4 -2
v -1 1.5 -2
v -0.9 0.1 -2
v -0.9 0.5 -2
v -0.8 0.3 -2
v -0.8 1.2 -2
v -0.8 1.5 -2
v -0.8 1.6 -2
v -0.8 1.7 -2
v -0.7 1.5 -2
v -0.7 1.6 -2
v -0.7 1.7 -2
v -0.6 0.3 -2
v -0.6 1.2 -2
v -0.4 0.3 -2
v -0.4 1.2 -2
v -0.3 1.7 -2
v -0.3 1.8 -2
v -0.2 0.3 -2
v -0.2 1.2 -2
v -0.2 1.7 -2
v -0.2 1.8 -2
v 1.19209e-07 0.3 -2
v 1.19209e-07 1.2 -2
v 0.1 1.8 -2
v 0.1 1.9 -2
v 0.2 0.3 -2
v 0.2 1.2 -2
v 0.4 0.3 -2
v 0.4 1.2 -2
v 0.6 0.3 -2
v 0.6 1.2 -2
v 0.8 0.3 -2
v 0.8 1.2 -2
v 1 0.3 -2
v 1 1.2 -2
v 1.2 0.1 -2
v 1.2 1.3 -2
v 1.3 1.3 -2
v 1.3 1.4 -2
v 1.3 1.5 -2
v 1.3 1.8 -2
v 1.3 1.9 -2
v -1 0 1.9
v 1.1 0 1.9
v -0.9 0 1.8
v 1 0 1.8
v -1 0 -1.6
v -0.9 0 -1.6
v -1 0 -1.7
v -0.9 0 -1.7
v -0.9 0 -1.8
v 1 0 -1.8
v -1 0 -1.9
v 1.1 0 -1.9
v -1 0.1 2
v -0.9 0.1 2
v 1.2 0.1 2
v -1 0.1 1.9
v -0.9 0.1 1.9
v 1.1 0.1 1.9
v -1 0.1 -1.9
v -0.9 0.1 -1.9
v 1.1 0.1 -1.9
v -1 0.1 -2
v -0.9 0.1 -2
v 1.2 0.1 -2
v 1.2 1.3 2
v 1.3 1.3 2
v 1.2 1.3 -2
v 1.3 1.3 -2
v -1 1.5 2
v -0.8 1.5 2
v -0.9 1.5 1.9
v -0.8 1.5 1.9
v -0.9 1.5 -1.9
v -0.8 1.5 -1.9
v -1 1.5 -2
v -0.8 1.5 -2
v -0.8 1.7 2
v -0.3 1.7 2
v -0.7 1.7 1.9
v -0.3 1.7 1.9
v -0.8 1.7 -2
v -0.7 1.7 -2
v -0.3 1.7 -2
v -0.3 1.8 2
v 0.1 1.8 2
v -0.2 1.8 1.9
v 0.1 1.8 1.9
v -0.3 1.8 -2
v -0.2 1.8 -2
v 0.1 1.8 -2
v 0.1 1.9 2
v 1.3 1.9 2
v 0.2 1.9 1.9
v 1.2 1.9 1.9
v 0.4 1.9 1.8
v 1 1.9 1.8
v 0.4 1.9 -1.8
v 1 1.9 -1.8
v 0.2 1.9 -1.9
v 1.2 1.9 -1.9
v 0.1 1.9 -2
v 1.3 1.9 -2

# faces
f 6/6/1 2/6/1 1/6/1
f 7/6/1 2/6/1 6/6/1
f 8/1/1 3/1/1 2/1/1
f 8/6/1 2/6/1 7/6/1
f 9/6/1 4/6/1 3/6/1
f 9/1/1 3/1/1 8/1/1
f 10/6/1 4/6/1 9/6/1
f 12/2/1 7/2/1 6/2/1
f 12/2/1 6/2/1 5/2/1
f 13/4/1 8/4/1 7/4/1
f 13/2/1 7/2/1 12/2/1
f 13/4/1 9/4/1 8/4/1
f 14/4/1 9/4/1 13/4/1
f 15/4/1 9/4/1 14/4/1
f 16/4/1 9/4/1 15/4/1
f 17/4/1 9/4/1 16/4/1
f 18/1/1 11/1/1 10/1/1
f 18/4/1 9/4/1 17/4/1
f 18/1/1 10/1/1 9/1/1
f 19/1/1 11/1/1 18/1/1
f 20/2/1 12/2/1 5/2/1
f 21/4/1 13/4/1 12/4/1
f 21/2/1 12/2/1 20/2/1
f 21/4/1 14/4/1 13/4/1
f 22/4/1 14/4/1 21/4/1
f 23/4/1 14/4/1 22/4/1
f 24/4/1 14/4/1 23/4/1
f 25/4/1 14/4/1 24/4/1
f 26/2/1 15/2/1 14/2/1
f 26/4/1 14/4/1 25/4/1
f 27/4/1 16/4/1 15/4/1
f 27/2/1 15/2/1 26/2/1
f 28/4/1 16/4/1 27/4/1
f 29/4/1 16/4/1 28/4/1
f 30/4/1 16/4/1 29/4/1
f 31/4/1 16/4/1 30/4/1
f 32/1/1 17/1/1 16/1/1
f 32/4/1 16/4/1 31/4/1
f 33/4/1 19/4/1 18/4/1
f 33/1/1 17/1/1 32/1/1
f 33/4/1 18/4/1 17/4/1
f 34/4/1 19/4/1 33/4/1
f 35/4/1 19/4/1 34/4/1
f 36/4/1 19/4/1 35/4/1
f 37/4/1 19/4/1 36/4/1
f 38/4/1 19/4/1 37/4/1
f 39/4/1 19/4/1 38/4/1
f 40/4/1 19/4/1 39/4/1
f 41/4/1 19/4/1 40/4/1
f 42/4/1 19/4/1 41/4/1
f 43/1/1 11/1/1 19/1/1
f 43/4/1 19/4/1 42/4/1
f 44/1/1 11/1/1 43/1/1
f 45/4/1 31/4/1 30/4/1
f 45/5/1 32/5/1 31/5/1
f 46/5/1 32/5/1 45/5/1
f 47/4/1 42/4/1 41/4/1
f 48/5/1 43/5/1 42/5/1
f 48/4/1 42/4/1 47/4/1
f 49/4/1 45/4/1 30/4/1
f 49/1/1 46/1/1 45/1/1
f 50/5/1 32/5/1 46/5/1
f 50/1/1 46/1/1 49/1/1
f 51/4/1 47/4/1 41/4/1
f 51/1/1 48/1/1 47/1/1
f 52/5/1 43/5/1 48/5/1
f 52/1/1 48/1/1 51/1/1
f 53/5/1 43/5/1 52/5/1
f 54/4/1 44/4/1 43/4/1
f 54/5/1 43/5/1 53/5/1
f 55/1/1 11/1/1 44/1/1
f 55/4/1 44/4/1 54/4/1
f 56/1/1 11/1/1 55/1/1
f 57/5/1 23/5/1 22/5/1
f 57/4/1 24/4/1 23/4/1
f 58/5/1 25/5/1 24/5/1
f 58/4/1 24/4/1 57/4/1
f 59/5/1 30/5/1 29/5/1
f 60/4/1 49/4/1 30/4/1
f 60/5/1 30/5/1 59/5/1
f 61/4/1 38/4/1 37/4/1
f 61/5/1 39/5/1 38/5/1
f 62/5/1 39/5/1 61/5/1
f 63/4/1 51/4/1 41/4/1
f 63/4/1 52/4/1 51/4/1
f 64/5/1 53/5/1 52/5/1
f 64/4/1 52/4/1 63/4/1
f 65/1/1 54/1/1 53/1/1
f 65/5/1 53/5/1 64/5/1
f 66/4/1 56/4/1 55/4/1
f 66/1/1 54/1/1 65/1/1
f 66/4/1 55/4/1 54/4/1
f 67/5/1 57/5/1 22/5/1
f 67/3/1 58/3/1 57/3/1
f 68/5/1 25/5/1 58/5/1
f 68/3/1 58/3/1 67/3/1
f 69/5/1 59/5/1 29/5/1
f 69/2/1 60/2/1 59/2/1
f 70/4/1 49/4/1 60/4/1
f 70/2/1 60/2/1 69/2/1
f 71/2/1 62/2/1 61/2/1
f 71/4/1 61/4/1 37/4/1
f 72/5/1 39/5/1 62/5/1
f 72/2/1 62/2/1 71/2/1
f 73/1/1 64/1/1 63/1/1
f 73/4/1 63/4/1 41/4/1
f 74/5/1 65/5/1 64/5/1
f 74/1/1 64/1/1 73/1/1
f 74/5/1 66/5/1 65/5/1
f 75/5/1 67/5/1 22/5/1
f 75/4/1 21/4/1 20/4/1
f 75/4/1 22/4/1 21/4/1
f 76/4/1 68/4/1 67/4/1
f 76/5/1 67/5/1 75/5/1
f 77/4/1 75/4/1 20/4/1
f 77/3/1 76/3/1 75/3/1
f 78/4/1 68/4/1 76/4/1
f 78/3/1 76/3/1 77/3/1
f 79/5/1 25/5/1 68/5/1
f 79/4/1 68/4/1 78/4/1
f 80/5/1 25/5/1 79/5/1
f 81/4/1 26/4/1 25/4/1
f 81/5/1 25/5/1 80/5/1
f 81/4/1 27/4/1 26/4/1
f 82/5/1 28/5/1 27/5/1
f 82/4/1 27/4/1 81/4/1
f 83/5/1 39/5/1 72/5/1
f 83/5/1 72/5/1 71/5/1
f 84/4/1 40/4/1 39/4/1
f 84/5/1 39/5/1 83/5/1
f 85/5/1 78/5/1 77/5/1
f 85/4/1 77/4/1 20/4/1
f 86/4/1 79/4/1 78/4/1
f 86/5/1 78/5/1 85/5/1
f 87/3/1 80/3/1 79/3/1
f 87/4/1 79/4/1 86/4/1
f 88/5/1 81/5/1 80/5/1
f 88/3/1 80/3/1 87/3/1
f 89/3/1 82/3/1 81/3/1
f 90/5/1 28/5/1 82/5/1
f 90/3/1 82/3/1 89/3/1
f 91/2/1 84/2/1 83/2/1
f 91/5/1 83/5/1 71/5/1
f 92/4/1 40/4/1 84/4/1
f 92/2/1 84/2/1 91/2/1
f 93/4/1 74/4/1 73/4/1
f 93/4/1 73/4/1 41/4/1
f 93/5/1 41/5/1 40/5/1
f 94/4/1 74/4/1 93/4/1
f 95/3/1 86/3/1 85/3/1
f 95/4/1 85/4/1 20/4/1
f 96/4/1 87/4/1 86/4/1
f 96/3/1 86/3/1 95/3/1
f 97/3/1 89/3/1 81/3/1
f 97/5/1 81/5/1 88/5/1
f 97/5/1 88/5/1 87/5/1
f 98/4/1 90/4/1 89/4/1
f 98/3/1 89/3/1 97/3/1
f 99/5/1 28/5/1 90/5/1
f 99/4/1 90/4/1 98/4/1
f 100/5/1 96/5/1 95/5/1
f 100/4/1 95/4/1 20/4/1
f 101/4/1 87/4/1 96/4/1
f 101/5/1 96/5/1 100/5/1
f 102/5/1 97/5/1 87/5/1
f 102/4/1 87/4/1 101/4/1
f 103/4/1 98/4/1 97/4/1
f 103/5/1 97/5/1 102/5/1
f 104/5/1 28/5/1 99/5/1
f 104/1/1 99/1/1 98/1/1
f 105/4/1 29/4/1 28/4/1
f 105/5/1 28/5/1 104/5/1
f 106/4/1 29/4/1 105/4/1
f 107/5/1 70/5/1 69/5/1
f 107/4/1 29/4/1 106/4/1
f 107/5/1 69/5/1 29/5/1
f 108/4/1 49/4/1 70/4/1
f 108/5/1 70/5/1 107/5/1
f 109/5/1 50/5/1 49/5/1
f 109/4/1 49/4/1 108/4/1
f 110/5/1 32/5/1 50/5/1
f 110/5/1 50/5/1 109/5/1
f 111/4/1 33/4/1 32/4/1
f 111/5/1 32/5/1 110/5/1
f 111/4/1 34/4/1 33/4/1
f 112/5/1 35/5/1 34/5/1
f 112/4/1 34/4/1 111/4/1
f 113/4/1 36/4/1 35/4/1
f 113/5/1 35/5/1 112/5/1
f 114/5/1 37/5/1 36/5/1
f 114/4/1 36/4/1 113/4/1
f 115/4/1 71/4/1 37/4/1
f 115/5/1 37/5/1 114/5/1
f 116/5/1 91/5/1 71/5/1
f 116/4/1 71/4/1 115/4/1
f 116/5/1 92/5/1 91/5/1
f 117/4/1 40/4/1 92/4/1
f 117/5/1 92/5/1 116/5/1
f 118/5/1 93/5/1 40/5/1
f 118/4/1 40/4/1 117/4/1
f 119/3/1 94/3/1 93/3/1
f 119/5/1 93/5/1 118/5/1
f 120/4/1 74/4/1 94/4/1
f 120/3/1 94/3/1 119/3/1
f 121/5/1 66/5/1 74/5/1
f 121/4/1 74/4/1 120/4/1
f 122/4/1 56/4/1 66/4/1
f 122/5/1 66/5/1 121/5/1
f 123/4/1 100/4/1 20/4/1
f 123/4/1 103/4/1 102/4/1
f 123/4/1 102/4/1 101/4/1
f 123/4/1 101/4/1 100/4/1
f 124/4/1 103/4/1 123/4/1
f 125/1/1 106/1/1 105/1/1
f 125/4/1 105/4/1 104/4/1
f 126/4/1 108/4/1 107/4/1
f 126/1/1 106/1/1 125/1/1
f 126/4/1 110/4/1 109/4/1
f 126/4/1 107/4/1 106/4/1
f 126/4/1 109/4/1 108/4/1
f 127/4/1 110/4/1 126/4/1
f 128/2/1 111/2/1 110/2/1
f 128/4/1 110/4/1 127/4/1
f 129/4/1 115/4/1 114/4/1
f 129/2/1 111/2/1 128/2/1
f 129/4/1 119/4/1 118/4/1
f 129/4/1 116/4/1 115/4/1
f 129/4/1 114/4/1 113/4/1
f 129/4/1 118/4/1 117/4/1
f 129/4/1 113/4/1 112/4/1
f 129/4/1 112/4/1 111/4/1
f 129/4/1 117/4/1 116/4/1
f 130/4/1 119/4/1 129/4/1
f 131/4/1 119/4/1 130/4/1
f 132/3/1 121/3/1 120/3/1
f 132/3/1 120/3/1 119/3/1
f 132/4/1 122/4/1 121/4/1
f 133/4/1 56/4/1 122/4/1
f 133/4/1 122/4/1 132/4/1
f 134/2/1 124/2/1 123/2/1
f 135/4/1 103/4/1 124/4/1
f 135/2/1 124/2/1 134/2/1
f 136/4/1 98/4/1 103/4/1
f 136/4/1 103/4/1 135/4/1
f 136/1/1 104/1/1 98/1/1
f 137/4/1 126/4/1 125/4/1
f 137/1/1 104/1/1 136/1/1
f 137/4/1 125/4/1 104/4/1
f 138/1/1 127/1/1 126/1/1
f 138/4/1 126/4/1 137/4/1
f 139/4/1 128/4/1 127/4/1
f 139/1/1 127/1/1 138/1/1
f 139/4/1 129/4/1 128/4/1
f 139/4/1 130/4/1 129/4/1
f 140/3/1 131/3/1 130/3/1
f 140/4/1 130/4/1 139/4/1
f 141/4/1 119/4/1 131/4/1
f 141/3/1 131/3/1 140/3/1
f 142/3/1 132/3/1 119/3/1
f 142/4/1 119/4/1 141/4/1
f 142/3/1 133/3/1 132/3/1
f 143/4/1 56/4/1 133/4/1
f 143/3/1 133/3/1 142/3/1
f 144/4/1 56/4/1 143/4/1
f 145/8/1 138/8/1 137/8/1
f 145/8/1 141/8/1 140/8/1
f 145/8/1 144/8/1 143/8/1
f 145/8/1 143/8/1 142/8/1
f 145/8/1 137/8/1 136/8/1
f 145/8/1 136/8/1 135/8/1
f 145/8/1 135/8/1 134/8/1
f 145/8/1 140/8/1 139/8/1
f 145/8/1 142/8/1 141/8/1
f 145/8/1 139/8/1 138/8/1
f 146/8/1 144/8/1 145/8/1
f 151/7/1 148/7/1 147/7/1
f 151/7/1 150/7/1 149/7/1
f 151/7/1 149/7/1 148/7/1
f 152/7/1 150/7/1 151/7/1
f 153/8/1 152/8/1 151/8/1
f 154/8/1 152/8/1 153/8/1
f 158/8/1 156/8/1 155/8/1
f 158/8/1 157/8/1 156/8/1
f 159/8/1 157/8/1 158/8/1
f 163/8/1 161/8/1 160/8/1
f 163/8/1 162/8/1 161/8/1
f 164/8/1 162/8/1 163/8/1
f 165/6/2 166/6/2 167/6/2
f 167/6/2 166/6/2 168/6/2
f 169/4/2 170/4/2 171/4/2
f 171/4/2 170/4/2 172/4/2
f 173/4/2 174/4/2 175/4/2
f 175/4/2 174/4/2 176/4/2
f 175/8/2 176/8/2 177/8/2
f 177/8/2 176/8/2 178/8/2
f 177/4/2 178/4/2 179/4/2
f 179/4/2 178/4/2 180/4/2
f 179/8/2 180/8/2 181/8/2
f 181/8/2 180/8/2 182/8/2
f 188/2/3 184/2/3 183/2/3
f 189/4/3 185/4/3 184/4/3
f 189/2/3 184/2/3 188/2/3
f 190/2/3 186/2/3 185/2/3
f 190/4/3 185/4/3 189/4/3
f 191/8/3 187/8/3 186/8/3
f 191/2/3 186/2/3 190/2/3
f 192/8/3 187/8/3 191/8/3
f 195/8/3 192/8/3 191/8/3
f 195/7/3 193/7/3 192/7/3
f 196/8/3 194/8/3 193/8/3
f 196/7/3 193/7/3 195/7/3
f 197/8/3 194/8/3 196/8/3
f 199/4/3 196/4/3 195/4/3
f 199/8/3 198/8/3 197/8/3
f 199/8/3 197/8/3 196/8/3
f 200/8/3 198/8/3 199/8/3
f 201/8/3 198/8/3 200/8/3
f 203/4/3 200/4/3 199/4/3
f 203/8/3 202/8/3 201/8/3
f 203/8/3 201/8/3 200/8/3
f 204/8/3 202/8/3 203/8/3
f 205/4/3 190/4/3 189/4/3
f 205/4/3 189/4/3 188/4/3
f 205/4/3 191/4/3 190/4/3
f 206/4/3 191/4/3 205/4/3
f 207/4/3 191/4/3 206/4/3
f 208/8/3 195/8/3 191/8/3
f 208/4/3 191/4/3 207/4/3
f 209/4/3 204/4/3 203/4/3
f 209/8/3 195/8/3 208/8/3
f 209/4/3 203/4/3 199/4/3
f 209/4/3 199/4/3 195/4/3
f 210/8/3 202/8/3 204/8/3
f 210/4/3 204/4/3 209/4/3
f 211/8/3 202/8/3 210/8/3
f 214/6/3 213/6/3 212/6/3
f 215/6/3 214/6/3 212/6/3
f 216/6/3 214/6/3 215/6/3
f 217/6/4 218/6/4 219/6/4
f 217/6/4 219/6/4 220/6/4
f 220/6/4 219/6/4 221/6/4
f 222/1/4 223/1/4 226/1/4
f 223/4/4 224/4/4 227/4/4
f 226/1/4 223/1/4 227/1/4
f 226/4/4 227/4/4 228/4/4
f 227/4/4 224/4/4 229/4/4
f 228/4/4 227/4/4 229/4/4
f 224/8/4 225/8/4 230/8/4
f 224/8/4 230/8/4 233/8/4
f 230/7/4 231/7/4 233/7/4
f 231/8/4 232/8/4 234/8/4
f 233/7/4 231/7/4 234/7/4
f 234/8/4 232/8/4 235/8/4
f 226/4/4 228/4/4 236/4/4
f 228/5/4 229/5/4 236/5/4
f 229/4/4 224/4/4 237/4/4
f 236/5/4 229/5/4 237/5/4
f 226/4/4 236/4/4 238/4/4
f 236/4/4 237/4/4 238/4/4
f 237/4/4 224/4/4 239/4/4
f 238/4/4 237/4/4 239/4/4
f 234/4/4 235/4/4 240/4/4
f 233/4/4 234/4/4 240/4/4
f 226/4/4 238/4/4 242/4/4
f 238/5/4 239/5/4 242/5/4
f 239/4/4 224/4/4 243/4/4
f 242/5/4 239/5/4 243/5/4
f 240/8/4 241/8/4 244/8/4
f 233/4/4 240/4/4 244/4/4
f 244/8/4 241/8/4 245/8/4
f 242/4/4 243/4/4 246/4/4
f 226/4/4 242/4/4 246/4/4
f 243/4/4 224/4/4 247/4/4
f 246/4/4 243/4/4 247/4/4
f 244/4/4 245/4/4 248/4/4
f 226/4/4 246/4/4 250/4/4
f 246/5/4 247/5/4 250/5/4
f 247/4/4 224/4/4 251/4/4
f 250/5/4 247/5/4 251/5/4
f 226/4/4 250/4/4 252/4/4
f 250/4/4 251/4/4 252/4/4
f 251/4/4 224/4/4 253/4/4
f 252/4/4 251/4/4 253/4/4
f 226/4/4 252/4/4 254/4/4
f 252/5/4 253/5/4 254/5/4
f 253/4/4 224/4/4 255/4/4
f 254/5/4 253/5/4 255/5/4
f 226/4/4 254/4/4 256/4/4
f 254/4/4 255/4/4 256/4/4
f 255/4/4 224/4/4 257/4/4
f 256/4/4 255/4/4 257/4/4
f 226/4/4 256/4/4 258/4/4
f 256/5/4 257/5/4 258/5/4
f 257/4/4 224/4/4 259/4/4
f 258/5/4 257/5/4 259/5/4
f 226/4/4 258/4/4 260/4/4
f 258/4/4 259/4/4 260/4/4
f 259/4/4 224/4/4 261/4/4
f 260/4/4 259/4/4 261/4/4
f 261/4/4 224/4/4 262/4/4
f 224/8/4 233/8/4 263/8/4
f 262/4/4 224/4/4 263/4/4
f 244/4/4 248/4/4 264/4/4
f 263/8/4 233/8/4 264/8/4
f 233/4/4 244/4/4 264/4/4
f 248/8/4 249/8/4 265/8/4
f 264/4/4 248/4/4 265/4/4
f 265/8/4 249/8/4 266/8/4
f 269/6/5 268/6/5 267/6/5
f 270/6/5 268/6/5 269/6/5
f 271/6/5 269/6/5 267/6/5
f 272/4/5 270/4/5 269/4/5
f 272/6/5 269/6/5 271/6/5
f 273/1/5 272/1/5 271/1/5
f 274/4/5 270/4/5 272/4/5
f 274/1/5 272/1/5 273/1/5
f 275/6/5 274/6/5 273/6/5
f 275/4/5 270/4/5 274/4/5
f 276/6/5 268/6/5 270/6/5
f 276/4/5 270/4/5 275/4/5
f 277/6/5 275/6/5 273/6/5
f 277/6/5 276/6/5 275/6/5
f 278/6/5 268/6/5 276/6/5
f 278/6/5 276/6/5 277/6/5
f 282/2/5 280/2/5 279/2/5
f 283/4/5 281/4/5 280/4/5
f 283/2/5 280/2/5 282/2/5
f 284/4/5 281/4/5 283/4/5
f 287/4/5 281/4/5 284/4/5
f 288/1/5 286/1/5 285/1/5
f 289/4/5 287/4/5 286/4/5
f 289/1/5 286/1/5 288/1/5
f 290/4/5 281/4/5 287/4/5
f 290/4/5 287/4/5 289/4/5
f 293/4/5 292/4/5 291/4/5
f 294/4/5 292/4/5 293/4/5
f 295/8/6 296/8/6 297/8/6
f 297/8/6 296/8/6 298/8/6
f 295/8/6 297/8/6 299/8/6
f 297/4/6 298/4/6 299/4/6
f 299/4/6 298/4/6 300/4/6
f 295/8/6 299/8/6 301/8/6
f 299/8/6 300/8/6 301/8/6
f 301/8/6 300/8/6 302/8/6
f 303/8/6 304/8/6 305/8/6
f 305/8/6 304/8/6 306/8/6
f 303/8/6 305/8/6 307/8/6
f 305/4/6 306/4/6 308/4/6
f 307/8/6 305/8/6 308/8/6
f 308/4/6 306/4/6 309/4/6
f 310/8/6 311/8/6 312/8/6
f 312/8/6 311/8/6 313/8/6
f 310/8/6 312/8/6 314/8/6
f 312/4/6 313/4/6 315/4/6
f 314/8/6 312/8/6 315/8/6
f 315/4/6 313/4/6 316/4/6
f 317/8/6 318/8/6 319/8/6
f 319/8/6 318/8/6 320/8/6
f 319/4/6 320/4/6 321/4/6
f 321/4/6 320/4/6 322/4/6
f 319/4/6 321/4/6 323/4/6
f 321/2/6 322/2/6 323/2/6
f 322/4/6 320/4/6 324/4/6
f 323/2/6 322/2/6 324/2/6
f 317/8/6 319/8/6 325/8/6
f 319/4/6 323/4/6 325/4/6
f 323/4/6 324/4/6 325/4/6
f 324/4/6 320/4/6 326/4/6
f 325/4/6 324/4/6 326/4/6
f 320/8/6 318/8/6 326/8/6
f 317/8/6 325/8/6 327/8/6
f 325/8/6 326/8/6 327/8/6
f 326/8/6 318/8/6 328/8/6
f 327/8/6 326/8/6 328/8/6
