# MagicaVoxel @ Ephtracy

# group
o 

# material
mtllib lampo.mtl
usemtl palette

# normals
vn -1 0 0
vn 1 0 0
vn 0 0 1
vn 0 0 -1
vn 0 -1 0
vn 0 1 0

# texcoords
vt 0.0214844 0.5
vt 0.0449219 0.5
vt 0.978516 0.5
vt 0.982422 0.5
vt 0.994141 0.5

# verts
v -0.8 0 0.5
v -0.8 0 -0.3
v -0.8 0.1 0.5
v -0.8 0.1 0.4
v -0.8 0.1 -0.2
v -0.8 0.1 -0.3
v -0.8 0.2 0.4
v -0.8 0.2 -0.2
v -0.7 0.1 0.5
v -0.7 0.1 0.4
v -0.7 0.1 -0.2
v -0.7 0.1 -0.3
v -0.7 0.2 0.5
v -0.7 0.2 0.4
v -0.7 0.2 -0.1
v -0.7 0.2 -0.2
v -0.7 0.2 -0.3
v -0.7 0.3 0.4
v -0.7 0.3 -0.1
v -0.6 0 0.6
v -0.6 0 0.5
v -0.6 0 -0.3
v -0.6 0 -0.4
v -0.6 0.1 0.6
v -0.6 0.1 0.5
v -0.6 0.1 -0.3
v -0.6 0.1 -0.4
v -0.6 0.2 0.6
v -0.6 0.2 0.5
v -0.6 0.2 0.4
v -0.6 0.2 -0.1
v -0.6 0.2 -0.2
v -0.6 0.3 0.5
v -0.6 0.3 0.4
v -0.6 0.3 -0.1
v -0.6 0.3 -0.2
v -0.5 0 0.7
v -0.5 0 0.6
v -0.5 0.1 0.7
v -0.5 0.1 0.6
v -0.5 0.2 0.7
v -0.5 0.2 0.6
v -0.5 0.2 0.5
v -0.5 0.3 0.6
v -0.5 0.3 0.5
v -0.5 3.1 0.5
v -0.5 3.1 -0.1
v -0.5 3.2 0.5
v -0.5 3.2 -0.1
v -0.4 2.3 0.2
v -0.4 2.3 0.1
v -0.4 2.4 0.3
v -0.4 2.4 0.2
v -0.4 2.5 0.3
v -0.4 2.5 0.1
v -0.4 2.6 0.4
v -0.4 2.6 0.3
v -0.4 2.6 0.1
v -0.4 2.6 -5.96046e-08
v -0.4 2.8 0.4
v -0.4 2.8 -5.96046e-08
v -0.4 3.1 0.4
v -0.4 3.1 -5.96046e-08
v -0.4 3.2 0.4
v -0.4 3.2 -5.96046e-08
v -0.4 3.3 0.4
v -0.4 3.3 -5.96046e-08
v -0.3 0.3 0.3
v -0.3 0.3 0.2
v -0.3 0.3 0.1
v -0.3 2.3 0.2
v -0.3 2.3 0.1
v -0.3 2.4 0.4
v -0.3 2.4 0.3
v -0.3 2.4 0.2
v -0.3 2.5 0.4
v -0.3 2.5 0.3
v -0.3 2.5 0.1
v -0.3 2.5 -5.96046e-08
v -0.3 2.6 0.4
v -0.3 2.6 0.3
v -0.3 2.6 0.1
v -0.3 2.6 -5.96046e-08
v -0.3 3.3 0.3
v -0.3 3.3 0.1
v -0.3 3.4 0.3
v -0.3 3.4 0.1
v -0.2 0.3 0.4
v -0.2 0.3 0.3
v -0.2 0.3 0.1
v -0.2 0.3 -5.96046e-08
v -0.2 2.4 0.4
v -0.2 2.4 0.3
v -0.2 2.5 0.1
v -0.2 2.5 -5.96046e-08
v 0.5 0.1 0.6
v 0.5 0.1 0.5
v 0.5 0.2 0.6
v 0.5 0.2 0.5
v 5.96046e-08 0.3 0.4
v 5.96046e-08 0.3 0.3
v 5.96046e-08 0.3 0.1
v 5.96046e-08 0.3 -5.96046e-08
v 5.96046e-08 2.4 0.4
v 5.96046e-08 2.4 0.3
v 5.96046e-08 2.5 0.1
v 5.96046e-08 2.5 -5.96046e-08
v 0.1 0.3 0.3
v 0.1 0.3 0.2
v 0.1 0.3 0.1
v 0.1 2.4 0.4
v 0.1 2.4 0.3
v 0.1 2.4 0.2
v 0.1 2.5 0.4
v 0.1 2.5 0.3
v 0.1 2.5 0.2
v 0.1 2.5 0.1
v 0.1 2.5 -5.96046e-08
v 0.1 2.6 0.4
v 0.1 2.6 0.3
v 0.1 2.6 0.1
v 0.1 2.6 -5.96046e-08
v 0.1 3.3 0.3
v 0.1 3.3 0.1
v 0.1 3.4 0.3
v 0.1 3.4 0.1
v 0.2 2.4 0.3
v 0.2 2.4 0.2
v 0.2 2.5 0.3
v 0.2 2.5 0.2
v 0.2 2.5 0.1
v 0.2 2.6 0.4
v 0.2 2.6 0.3
v 0.2 2.6 0.1
v 0.2 2.6 -5.96046e-08
v 0.2 2.8 0.4
v 0.2 2.8 -5.96046e-08
v 0.2 3 0.4
v 0.2 3 -5.96046e-08
v 0.2 3.1 0.4
v 0.2 3.1 -5.96046e-08
v 0.2 3.2 0.4
v 0.2 3.2 -5.96046e-08
v 0.2 3.3 0.4
v 0.2 3.3 -5.96046e-08
v 0.3 0.1 0.7
v 0.3 0.1 0.5
v 0.3 0.2 0.7
v 0.3 0.2 0.6
v 0.3 0.2 0.5
v 0.3 0.3 0.6
v 0.3 0.3 0.5
v 0.3 3.1 0.5
v 0.3 3.1 -0.1
v 0.3 3.2 0.5
v 0.3 3.2 -0.1
v 0.4 0 0.7
v 0.4 0 0.5
v 0.4 0 -0.2
v 0.4 0 -0.4
v 0.4 0.1 0.7
v 0.4 0.1 0.5
v 0.4 0.1 -0.2
v 0.4 0.1 -0.3
v 0.4 0.1 -0.4
v 0.4 0.2 -0.1
v 0.4 0.2 -0.2
v 0.4 0.2 -0.3
v 0.4 0.3 -0.1
v 0.4 0.3 -0.2
v 0.5 0.2 0.5
v 0.5 0.2 -0.1
v 0.5 0.3 0.5
v 0.5 0.3 -0.1
v 0.6 0 0.5
v 0.6 0 -0.2
v 0.6 0.1 0.6
v 0.6 0.1 0.5
v 0.6 0.1 -0.2
v 0.6 0.2 0.6
v 0.6 0.2 0.5
v 0.6 0.2 -0.2
v -0.5 0 0.7
v -0.5 0.1 0.7
v -0.5 0.2 0.7
v 0.3 0.1 0.7
v 0.3 0.2 0.7
v 0.4 0 0.7
v 0.4 0.1 0.7
v -0.6 0 0.6
v -0.6 0.1 0.6
v -0.6 0.2 0.6
v -0.5 0 0.6
v -0.5 0.1 0.6
v -0.5 0.2 0.6
v -0.5 0.3 0.6
v 0.3 0.2 0.6
v 0.3 0.3 0.6
v 0.5 0.1 0.6
v 0.5 0.2 0.6
v 0.6 0.1 0.6
v 0.6 0.2 0.6
v -0.8 0 0.5
v -0.8 0.1 0.5
v -0.7 0.1 0.5
v -0.7 0.2 0.5
v -0.6 0 0.5
v -0.6 0.1 0.5
v -0.6 0.2 0.5
v -0.6 0.3 0.5
v -0.5 0.2 0.5
v -0.5 0.3 0.5
v -0.5 3.1 0.5
v -0.5 3.2 0.5
v 0.3 0.1 0.5
v 0.3 0.2 0.5
v 0.3 0.3 0.5
v 0.3 3.1 0.5
v 0.3 3.2 0.5
v 0.4 0 0.5
v 0.4 0.1 0.5
v 0.5 0.1 0.5
v 0.5 0.2 0.5
v 0.5 0.3 0.5
v 0.6 0 0.5
v 0.6 0.1 0.5
v -0.8 0.1 0.4
v -0.8 0.2 0.4
v -0.7 0.1 0.4
v -0.7 0.2 0.4
v -0.7 0.3 0.4
v -0.6 0.2 0.4
v -0.6 0.3 0.4
v -0.4 2.6 0.4
v -0.4 2.8 0.4
v -0.4 3.1 0.4
v -0.4 3.2 0.4
v -0.4 3.3 0.4
v -0.3 2.4 0.4
v -0.3 2.5 0.4
v -0.3 2.6 0.4
v -0.2 0.3 0.4
v -0.2 2.4 0.4
v 5.96046e-08 0.3 0.4
v 5.96046e-08 2.4 0.4
v 0.1 2.4 0.4
v 0.1 2.5 0.4
v 0.1 2.6 0.4
v 0.1 3 0.4
v 0.1 3.1 0.4
v 0.2 2.6 0.4
v 0.2 2.8 0.4
v 0.2 3 0.4
v 0.2 3.1 0.4
v 0.2 3.2 0.4
v 0.2 3.3 0.4
v -0.4 2.4 0.3
v -0.4 2.5 0.3
v -0.4 2.6 0.3
v -0.3 0.3 0.3
v -0.3 2.4 0.3
v -0.3 2.5 0.3
v -0.3 2.6 0.3
v -0.3 3.3 0.3
v -0.3 3.4 0.3
v -0.2 0.3 0.3
v -0.2 2.4 0.3
v 5.96046e-08 0.3 0.3
v 5.96046e-08 2.4 0.3
v 0.1 0.3 0.3
v 0.1 2.4 0.3
v 0.1 2.5 0.3
v 0.1 2.6 0.3
v 0.1 3.3 0.3
v 0.1 3.4 0.3
v 0.2 2.4 0.3
v 0.2 2.5 0.3
v 0.2 2.6 0.3
v -0.4 2.3 0.2
v -0.4 2.4 0.2
v -0.3 2.3 0.2
v -0.3 2.4 0.2
v 0.1 2.4 0.2
v 0.1 2.5 0.2
v 0.2 2.4 0.2
v 0.2 2.5 0.2
v -0.4 2.3 0.1
v -0.4 2.5 0.1
v -0.4 2.6 0.1
v -0.3 0.3 0.1
v -0.3 2.3 0.1
v -0.3 2.5 0.1
v -0.3 2.6 0.1
v -0.3 3.3 0.1
v -0.3 3.4 0.1
v -0.2 0.3 0.1
v -0.2 2.5 0.1
v 5.96046e-08 0.3 0.1
v 5.96046e-08 2.5 0.1
v 0.1 0.3 0.1
v 0.1 2.5 0.1
v 0.1 2.6 0.1
v 0.1 3.3 0.1
v 0.1 3.4 0.1
v 0.2 2.5 0.1
v 0.2 2.6 0.1
v -0.4 2.6 -5.96046e-08
v -0.4 2.8 -5.96046e-08
v -0.4 3.1 -5.96046e-08
v -0.4 3.2 -5.96046e-08
v -0.4 3.3 -5.96046e-08
v -0.3 2.5 -5.96046e-08
v -0.3 2.6 -5.96046e-08
v -0.2 0.3 -5.96046e-08
v -0.2 2.5 -5.96046e-08
v 5.96046e-08 0.3 -5.96046e-08
v 5.96046e-08 2.5 -5.96046e-08
v 0.1 2.5 -5.96046e-08
v 0.1 2.6 -5.96046e-08
v 0.1 3 -5.96046e-08
v 0.1 3.1 -5.96046e-08
v 0.2 2.6 -5.96046e-08
v 0.2 2.8 -5.96046e-08
v 0.2 3 -5.96046e-08
v 0.2 3.1 -5.96046e-08
v 0.2 3.2 -5.96046e-08
v 0.2 3.3 -5.96046e-08
v -0.7 0.2 -0.1
v -0.7 0.3 -0.1
v -0.6 0.2 -0.1
v -0.6 0.3 -0.1
v -0.5 3.1 -0.1
v -0.5 3.2 -0.1
v 0.3 3.1 -0.1
v 0.3 3.2 -0.1
v 0.4 0.2 -0.1
v 0.4 0.3 -0.1
v 0.5 0.2 -0.1
v 0.5 0.3 -0.1
v -0.8 0.1 -0.2
v -0.8 0.2 -0.2
v -0.7 0.1 -0.2
v -0.7 0.2 -0.2
v -0.6 0.2 -0.2
v -0.6 0.3 -0.2
v -0.5 0.2 -0.2
v -0.5 0.3 -0.2
v 0.4 0 -0.2
v 0.4 0.1 -0.2
v 0.4 0.2 -0.2
v 0.4 0.3 -0.2
v 0.6 0 -0.2
v 0.6 0.1 -0.2
v 0.6 0.2 -0.2
v -0.8 0 -0.3
v -0.8 0.1 -0.3
v -0.7 0.1 -0.3
v -0.7 0.2 -0.3
v -0.6 0 -0.3
v -0.6 0.1 -0.3
v -0.6 0.2 -0.3
v 0.4 0.1 -0.3
v 0.4 0.2 -0.3
v -0.6 0 -0.4
v -0.6 0.1 -0.4
v 0.4 0 -0.4
v 0.4 0.1 -0.4
v -0.5 0 0.7
v 0.4 0 0.7
v -0.6 0 0.6
v -0.5 0 0.6
v 0.3 0 0.6
v -0.8 0 0.5
v -0.6 0 0.5
v 0.4 0 0.5
v 0.6 0 0.5
v -0.7 0 0.4
v -0.5 0 0.4
v -0.7 0 -0.2
v -0.6 0 -0.2
v 0.4 0 -0.2
v 0.6 0 -0.2
v -0.8 0 -0.3
v -0.6 0 -0.3
v 0.3 0 -0.3
v -0.6 0 -0.4
v 0.4 0 -0.4
v 0.5 0.1 0.6
v 0.6 0.1 0.6
v 0.5 0.1 0.5
v 0.6 0.1 0.5
v -0.4 2.3 0.2
v -0.3 2.3 0.2
v -0.4 2.3 0.1
v -0.3 2.3 0.1
v -0.3 2.4 0.4
v -0.2 2.4 0.4
v 5.96046e-08 2.4 0.4
v 0.1 2.4 0.4
v -0.4 2.4 0.3
v -0.3 2.4 0.3
v -0.2 2.4 0.3
v 5.96046e-08 2.4 0.3
v 0.1 2.4 0.3
v 0.2 2.4 0.3
v -0.4 2.4 0.2
v -0.3 2.4 0.2
v 0.1 2.4 0.2
v 0.2 2.4 0.2
v 0.1 2.5 0.2
v 0.2 2.5 0.2
v -0.3 2.5 0.1
v -0.2 2.5 0.1
v 5.96046e-08 2.5 0.1
v 0.1 2.5 0.1
v 0.2 2.5 0.1
v -0.3 2.5 -5.96046e-08
v -0.2 2.5 -5.96046e-08
v 5.96046e-08 2.5 -5.96046e-08
v 0.1 2.5 -5.96046e-08
v -0.4 2.6 0.4
v -0.3 2.6 0.4
v 0.1 2.6 0.4
v 0.2 2.6 0.4
v -0.4 2.6 0.3
v -0.3 2.6 0.3
v 0.1 2.6 0.3
v 0.2 2.6 0.3
v -0.4 2.6 0.1
v -0.3 2.6 0.1
v 0.1 2.6 0.1
v 0.2 2.6 0.1
v -0.4 2.6 -5.96046e-08
v -0.3 2.6 -5.96046e-08
v 0.1 2.6 -5.96046e-08
v 0.2 2.6 -5.96046e-08
v -0.5 3.1 0.5
v 0.3 3.1 0.5
v -0.4 3.1 0.4
v 0.1 3.1 0.4
v 0.2 3.1 0.4
v -0.4 3.1 -5.96046e-08
v 0.1 3.1 -5.96046e-08
v 0.2 3.1 -5.96046e-08
v -0.5 3.1 -0.1
v 0.3 3.1 -0.1
v 0.3 0.1 0.7
v 0.4 0.1 0.7
v -0.8 0.1 0.5
v -0.7 0.1 0.5
v 0.3 0.1 0.5
v 0.4 0.1 0.5
v -0.8 0.1 0.4
v -0.7 0.1 0.4
v -0.8 0.1 -0.2
v -0.7 0.1 -0.2
v -0.8 0.1 -0.3
v -0.7 0.1 -0.3
v -0.6 0.1 -0.3
v 0.4 0.1 -0.3
v -0.6 0.1 -0.4
v 0.4 0.1 -0.4
v -0.5 0.2 0.7
v 0.3 0.2 0.7
v -0.6 0.2 0.6
v -0.5 0.2 0.6
v 0.3 0.2 0.6
v 0.5 0.2 0.6
v 0.6 0.2 0.6
v -0.7 0.2 0.5
v -0.6 0.2 0.5
v -0.5 0.2 0.5
v 0.5 0.2 0.5
v 0.6 0.2 0.5
v -0.8 0.2 0.4
v -0.7 0.2 0.4
v -0.6 0.2 0.4
v -0.7 0.2 -0.1
v -0.6 0.2 -0.1
v 0.4 0.2 -0.1
v 0.5 0.2 -0.1
v -0.8 0.2 -0.2
v -0.7 0.2 -0.2
v -0.6 0.2 -0.2
v -0.5 0.2 -0.2
v 0.4 0.2 -0.2
v 0.6 0.2 -0.2
v -0.7 0.2 -0.3
v -0.6 0.2 -0.3
v 0.4 0.2 -0.3
v -0.5 0.3 0.6
v 0.3 0.3 0.6
v -0.6 0.3 0.5
v -0.5 0.3 0.5
v 0.3 0.3 0.5
v 0.5 0.3 0.5
v -0.7 0.3 0.4
v -0.6 0.3 0.4
v -0.5 0.3 0.4
v -0.2 0.3 0.4
v 5.96046e-08 0.3 0.4
v -0.3 0.3 0.3
v -0.2 0.3 0.3
v 5.96046e-08 0.3 0.3
v 0.1 0.3 0.3
v -0.3 0.3 0.2
v 0.1 0.3 0.2
v -0.3 0.3 0.1
v -0.2 0.3 0.1
v 5.96046e-08 0.3 0.1
v 0.1 0.3 0.1
v -0.2 0.3 -5.96046e-08
v 5.96046e-08 0.3 -5.96046e-08
v -0.7 0.3 -0.1
v -0.6 0.3 -0.1
v -0.5 0.3 -0.1
v 0.3 0.3 -0.1
v 0.4 0.3 -0.1
v 0.5 0.3 -0.1
v -0.6 0.3 -0.2
v -0.5 0.3 -0.2
v 0.4 0.3 -0.2
v -0.5 3.2 0.5
v 0.3 3.2 0.5
v -0.4 3.2 0.4
v 0.2 3.2 0.4
v -0.4 3.2 -5.96046e-08
v 0.2 3.2 -5.96046e-08
v -0.5 3.2 -0.1
v 0.3 3.2 -0.1
v -0.4 3.3 0.4
v 0.2 3.3 0.4
v -0.3 3.3 0.3
v 0.1 3.3 0.3
v -0.3 3.3 0.1
v 0.1 3.3 0.1
v -0.4 3.3 -5.96046e-08
v 0.2 3.3 -5.96046e-08
v -0.3 3.4 0.3
v 0.1 3.4 0.3
v -0.3 3.4 0.1
v 0.1 3.4 0.1

# faces
f 3/5/1 2/5/1 1/5/1
f 4/5/1 2/5/1 3/5/1
f 5/5/1 2/5/1 4/5/1
f 6/5/1 2/5/1 5/5/1
f 7/3/1 5/3/1 4/3/1
f 8/3/1 5/3/1 7/3/1
f 13/3/1 10/3/1 9/3/1
f 14/3/1 10/3/1 13/3/1
f 16/4/1 12/4/1 11/4/1
f 17/4/1 12/4/1 16/4/1
f 18/4/1 15/4/1 14/4/1
f 19/4/1 15/4/1 18/4/1
f 24/5/1 21/5/1 20/5/1
f 25/5/1 21/5/1 24/5/1
f 26/5/1 23/5/1 22/5/1
f 27/5/1 23/5/1 26/5/1
f 28/3/1 25/3/1 24/3/1
f 29/3/1 25/3/1 28/3/1
f 33/4/1 30/4/1 29/4/1
f 34/4/1 30/4/1 33/4/1
f 35/5/1 32/5/1 31/5/1
f 36/5/1 32/5/1 35/5/1
f 39/5/1 38/5/1 37/5/1
f 40/5/1 38/5/1 39/5/1
f 41/3/1 40/3/1 39/3/1
f 42/3/1 40/3/1 41/3/1
f 44/4/1 43/4/1 42/4/1
f 45/4/1 43/4/1 44/4/1
f 48/3/1 47/3/1 46/3/1
f 49/3/1 47/3/1 48/3/1
f 53/3/1 51/3/1 50/3/1
f 54/3/1 53/3/1 52/3/1
f 55/3/1 51/3/1 53/3/1
f 55/3/1 53/3/1 54/3/1
f 57/4/1 55/4/1 54/4/1
f 58/4/1 55/4/1 57/4/1
f 60/1/1 58/1/1 57/1/1
f 60/1/1 59/1/1 58/1/1
f 60/1/1 57/1/1 56/1/1
f 61/1/1 59/1/1 60/1/1
f 62/2/1 61/2/1 60/2/1
f 63/2/1 61/2/1 62/2/1
f 66/3/1 65/3/1 64/3/1
f 67/3/1 65/3/1 66/3/1
f 71/4/1 69/4/1 68/4/1
f 71/3/1 70/3/1 69/3/1
f 72/3/1 70/3/1 71/3/1
f 74/4/1 71/4/1 68/4/1
f 75/4/1 71/4/1 74/4/1
f 76/3/1 74/3/1 73/3/1
f 77/3/1 74/3/1 76/3/1
f 80/4/1 77/4/1 76/4/1
f 81/4/1 77/4/1 80/4/1
f 82/4/1 79/4/1 78/4/1
f 83/4/1 79/4/1 82/4/1
f 86/3/1 85/3/1 84/3/1
f 87/3/1 85/3/1 86/3/1
f 92/3/1 89/3/1 88/3/1
f 93/3/1 89/3/1 92/3/1
f 94/3/1 91/3/1 90/3/1
f 95/3/1 91/3/1 94/3/1
f 98/5/1 97/5/1 96/5/1
f 99/5/1 97/5/1 98/5/1
f 100/3/2 101/3/2 104/3/2
f 104/3/2 101/3/2 105/3/2
f 102/3/2 103/3/2 106/3/2
f 106/3/2 103/3/2 107/3/2
f 108/4/2 109/4/2 112/4/2
f 109/3/2 110/3/2 113/3/2
f 112/4/2 109/4/2 113/4/2
f 111/3/2 112/3/2 114/3/2
f 114/3/2 112/3/2 115/3/2
f 113/3/2 110/3/2 116/3/2
f 116/3/2 110/3/2 117/3/2
f 114/4/2 115/4/2 119/4/2
f 119/4/2 115/4/2 120/4/2
f 117/4/2 118/4/2 121/4/2
f 121/4/2 118/4/2 122/4/2
f 123/3/2 124/3/2 125/3/2
f 125/3/2 124/3/2 126/3/2
f 127/3/2 128/3/2 129/3/2
f 129/3/2 128/3/2 130/3/2
f 129/4/2 130/4/2 133/4/2
f 130/4/2 131/4/2 133/4/2
f 133/4/2 131/4/2 134/4/2
f 132/1/2 133/1/2 136/1/2
f 134/1/2 135/1/2 136/1/2
f 133/1/2 134/1/2 136/1/2
f 136/1/2 135/1/2 137/1/2
f 136/2/2 137/2/2 138/2/2
f 138/2/2 137/2/2 139/2/2
f 138/3/2 139/3/2 140/3/2
f 140/3/2 139/3/2 141/3/2
f 142/3/2 143/3/2 144/3/2
f 144/3/2 143/3/2 145/3/2
f 146/3/2 147/3/2 148/3/2
f 148/3/2 147/3/2 149/3/2
f 149/3/2 147/3/2 150/3/2
f 149/4/2 150/4/2 151/4/2
f 151/4/2 150/4/2 152/4/2
f 153/3/2 154/3/2 155/3/2
f 155/3/2 154/3/2 156/3/2
f 157/5/2 158/5/2 161/5/2
f 161/5/2 158/5/2 162/5/2
f 159/5/2 160/5/2 163/5/2
f 163/5/2 160/5/2 164/5/2
f 164/5/2 160/5/2 165/5/2
f 163/3/2 164/3/2 167/3/2
f 167/3/2 164/3/2 168/3/2
f 166/4/2 167/4/2 169/4/2
f 169/4/2 167/4/2 170/4/2
f 171/4/2 172/4/2 173/4/2
f 173/4/2 172/4/2 174/4/2
f 175/5/2 176/5/2 178/5/2
f 178/5/2 176/5/2 179/5/2
f 177/5/2 178/5/2 180/5/2
f 178/3/2 179/3/2 181/3/2
f 180/5/2 178/5/2 181/5/2
f 181/3/2 179/3/2 182/3/2
f 186/5/3 184/5/3 183/5/3
f 186/3/3 185/3/3 184/3/3
f 187/3/3 185/3/3 186/3/3
f 188/5/3 186/5/3 183/5/3
f 189/5/3 186/5/3 188/5/3
f 193/5/3 191/5/3 190/5/3
f 194/3/3 192/3/3 191/3/3
f 194/5/3 191/5/3 193/5/3
f 195/3/3 192/3/3 194/3/3
f 197/4/3 196/4/3 195/4/3
f 198/4/3 196/4/3 197/4/3
f 201/5/3 200/5/3 199/5/3
f 202/5/3 200/5/3 201/5/3
f 205/5/3 204/5/3 203/5/3
f 207/5/3 205/5/3 203/5/3
f 208/3/3 206/3/3 205/3/3
f 208/5/3 205/5/3 207/5/3
f 209/3/3 206/3/3 208/3/3
f 211/4/3 210/4/3 209/4/3
f 212/4/3 210/4/3 211/4/3
f 218/3/3 214/3/3 213/3/3
f 219/3/3 214/3/3 218/3/3
f 221/3/3 216/3/3 215/3/3
f 222/3/3 216/3/3 221/3/3
f 222/5/3 221/5/3 220/5/3
f 223/4/3 217/4/3 216/4/3
f 223/3/3 216/3/3 222/3/3
f 224/4/3 217/4/3 223/4/3
f 225/5/3 222/5/3 220/5/3
f 226/5/3 222/5/3 225/5/3
f 229/3/3 228/3/3 227/3/3
f 230/3/3 228/3/3 229/3/3
f 232/4/3 231/4/3 230/4/3
f 233/4/3 231/4/3 232/4/3
f 241/1/3 235/1/3 234/1/3
f 243/3/3 240/3/3 239/3/3
f 244/3/3 243/3/3 242/3/3
f 245/3/3 240/3/3 243/3/3
f 245/3/3 243/3/3 244/3/3
f 246/3/3 240/3/3 245/3/3
f 247/4/3 241/4/3 240/4/3
f 247/3/3 240/3/3 246/3/3
f 248/1/3 235/1/3 241/1/3
f 248/4/3 241/4/3 247/4/3
f 249/2/3 236/2/3 235/2/3
f 250/2/3 236/2/3 249/2/3
f 251/1/3 235/1/3 248/1/3
f 252/2/3 249/2/3 235/2/3
f 252/1/3 235/1/3 251/1/3
f 253/3/3 250/3/3 249/3/3
f 253/2/3 249/2/3 252/2/3
f 254/3/3 250/3/3 253/3/3
f 255/3/3 238/3/3 237/3/3
f 256/3/3 238/3/3 255/3/3
f 261/3/3 258/3/3 257/3/3
f 262/4/3 259/4/3 258/4/3
f 262/3/3 258/3/3 261/3/3
f 263/4/3 259/4/3 262/4/3
f 266/4/3 261/4/3 260/4/3
f 267/4/3 261/4/3 266/4/3
f 270/4/3 269/4/3 268/4/3
f 271/4/3 269/4/3 270/4/3
f 274/3/3 265/3/3 264/3/3
f 275/3/3 265/3/3 274/3/3
f 276/3/3 272/3/3 271/3/3
f 277/4/3 273/4/3 272/4/3
f 277/3/3 272/3/3 276/3/3
f 278/4/3 273/4/3 277/4/3
f 281/3/3 280/3/3 279/3/3
f 282/3/3 280/3/3 281/3/3
f 283/3/4 284/3/4 285/3/4
f 285/3/4 284/3/4 286/3/4
f 287/3/4 288/3/4 291/3/4
f 288/4/4 289/4/4 292/4/4
f 291/3/4 288/3/4 292/3/4
f 292/4/4 289/4/4 293/4/4
f 290/3/4 291/3/4 296/3/4
f 291/3/4 292/3/4 296/3/4
f 296/3/4 292/3/4 297/3/4
f 298/3/4 299/3/4 300/3/4
f 300/3/4 299/3/4 301/3/4
f 294/3/4 295/3/4 303/3/4
f 303/3/4 295/3/4 304/3/4
f 301/4/4 302/4/4 305/4/4
f 305/4/4 302/4/4 306/4/4
f 307/1/4 308/1/4 313/1/4
f 312/4/4 313/4/4 315/4/4
f 314/3/4 315/3/4 316/3/4
f 315/4/4 313/4/4 317/4/4
f 316/3/4 315/3/4 317/3/4
f 317/4/4 313/4/4 318/4/4
f 313/1/4 308/1/4 319/1/4
f 318/4/4 313/4/4 319/4/4
f 308/2/4 309/2/4 320/2/4
f 320/2/4 309/2/4 321/2/4
f 319/1/4 308/1/4 322/1/4
f 308/2/4 320/2/4 323/2/4
f 322/1/4 308/1/4 323/1/4
f 320/3/4 321/3/4 324/3/4
f 323/2/4 320/2/4 324/2/4
f 324/3/4 321/3/4 325/3/4
f 310/3/4 311/3/4 326/3/4
f 326/3/4 311/3/4 327/3/4
f 328/4/4 329/4/4 330/4/4
f 330/4/4 329/4/4 331/4/4
f 332/3/4 333/3/4 334/3/4
f 334/3/4 333/3/4 335/3/4
f 336/4/4 337/4/4 338/4/4
f 338/4/4 337/4/4 339/4/4
f 340/3/4 341/3/4 342/3/4
f 342/3/4 341/3/4 343/3/4
f 344/5/4 345/5/4 346/5/4
f 346/5/4 345/5/4 347/5/4
f 346/4/4 347/4/4 350/4/4
f 350/4/4 347/4/4 351/4/4
f 348/5/4 349/5/4 352/5/4
f 349/3/4 350/3/4 353/3/4
f 352/5/4 349/5/4 353/5/4
f 353/3/4 350/3/4 354/3/4
f 355/5/4 356/5/4 357/5/4
f 355/5/4 357/5/4 359/5/4
f 357/4/4 358/4/4 360/4/4
f 359/5/4 357/5/4 360/5/4
f 360/4/4 358/4/4 361/4/4
f 360/3/4 361/3/4 362/3/4
f 362/3/4 361/3/4 363/3/4
f 364/5/4 365/5/4 366/5/4
f 366/5/4 365/5/4 367/5/4
f 371/5/5 369/5/5 368/5/5
f 372/5/5 369/5/5 371/5/5
f 374/5/5 371/5/5 370/5/5
f 375/5/5 369/5/5 372/5/5
f 377/5/5 374/5/5 373/5/5
f 378/3/5 372/3/5 371/3/5
f 378/5/5 374/5/5 377/5/5
f 378/5/5 371/5/5 374/5/5
f 379/5/5 377/5/5 373/5/5
f 379/3/5 378/3/5 377/3/5
f 380/3/5 378/3/5 379/3/5
f 381/5/5 376/5/5 375/5/5
f 381/5/5 375/5/5 372/5/5
f 382/5/5 376/5/5 381/5/5
f 383/5/5 380/5/5 379/5/5
f 383/5/5 379/5/5 373/5/5
f 384/3/5 378/3/5 380/3/5
f 384/5/5 380/5/5 383/5/5
f 385/3/5 372/3/5 378/3/5
f 385/3/5 378/3/5 384/3/5
f 385/5/5 381/5/5 372/5/5
f 386/5/5 385/5/5 384/5/5
f 387/5/5 381/5/5 385/5/5
f 387/5/5 385/5/5 386/5/5
f 390/5/5 389/5/5 388/5/5
f 391/5/5 389/5/5 390/5/5
f 394/3/5 393/3/5 392/3/5
f 395/3/5 393/3/5 394/3/5
f 401/3/5 397/3/5 396/3/5
f 402/3/5 397/3/5 401/3/5
f 403/3/5 399/3/5 398/3/5
f 404/3/5 399/3/5 403/3/5
f 406/3/5 401/3/5 400/3/5
f 407/3/5 401/3/5 406/3/5
f 408/3/5 405/3/5 404/3/5
f 409/3/5 405/3/5 408/3/5
f 415/4/5 411/4/5 410/4/5
f 416/4/5 411/4/5 415/4/5
f 417/4/5 413/4/5 412/4/5
f 418/4/5 413/4/5 417/4/5
f 419/4/5 415/4/5 414/4/5
f 420/4/5 415/4/5 419/4/5
f 425/1/5 422/1/5 421/1/5
f 426/1/5 422/1/5 425/1/5
f 427/1/5 424/1/5 423/1/5
f 428/1/5 424/1/5 427/1/5
f 433/1/5 430/1/5 429/1/5
f 434/1/5 430/1/5 433/1/5
f 435/1/5 432/1/5 431/1/5
f 436/1/5 432/1/5 435/1/5
f 439/3/5 438/3/5 437/3/5
f 440/3/5 438/3/5 439/3/5
f 441/3/5 438/3/5 440/3/5
f 442/3/5 439/3/5 437/3/5
f 444/3/5 438/3/5 441/3/5
f 445/3/5 443/3/5 442/3/5
f 445/3/5 444/3/5 443/3/5
f 445/3/5 442/3/5 437/3/5
f 446/3/5 438/3/5 444/3/5
f 446/3/5 444/3/5 445/3/5
f 447/5/6 448/5/6 451/5/6
f 451/5/6 448/5/6 452/5/6
f 449/5/6 450/5/6 453/5/6
f 453/5/6 450/5/6 454/5/6
f 455/5/6 456/5/6 457/5/6
f 457/5/6 456/5/6 458/5/6
f 459/5/6 460/5/6 461/5/6
f 461/5/6 460/5/6 462/5/6
f 463/3/6 464/3/6 466/3/6
f 466/3/6 464/3/6 467/3/6
f 465/3/6 466/3/6 471/3/6
f 471/3/6 466/3/6 472/3/6
f 468/5/6 469/5/6 473/5/6
f 473/5/6 469/5/6 474/5/6
f 470/3/6 471/3/6 476/3/6
f 476/3/6 471/3/6 477/3/6
f 475/3/6 476/3/6 478/3/6
f 473/3/6 474/3/6 481/3/6
f 475/3/6 478/3/6 482/3/6
f 478/4/6 479/4/6 483/4/6
f 482/3/6 478/3/6 483/3/6
f 483/4/6 479/4/6 484/4/6
f 480/3/6 481/3/6 486/3/6
f 481/3/6 474/3/6 487/3/6
f 486/3/6 481/3/6 487/3/6
f 483/4/6 484/4/6 488/4/6
f 484/3/6 485/3/6 489/3/6
f 488/4/6 484/4/6 489/4/6
f 485/3/6 486/3/6 489/3/6
f 489/3/6 486/3/6 490/3/6
f 491/4/6 492/4/6 494/4/6
f 494/4/6 492/4/6 495/4/6
f 493/4/6 494/4/6 498/4/6
f 494/3/6 495/3/6 499/3/6
f 498/4/6 494/4/6 499/4/6
f 499/3/6 495/3/6 500/3/6
f 500/3/6 495/3/6 501/3/6
f 498/3/6 499/3/6 502/3/6
f 499/3/6 500/3/6 502/3/6
f 502/3/6 500/3/6 503/3/6
f 501/3/6 495/3/6 504/3/6
f 504/3/6 495/3/6 505/3/6
f 498/3/6 502/3/6 506/3/6
f 505/3/6 495/3/6 507/3/6
f 498/3/6 506/3/6 508/3/6
f 507/3/6 495/3/6 511/3/6
f 508/3/6 509/3/6 512/3/6
f 510/3/6 511/3/6 513/3/6
f 497/4/6 498/4/6 514/4/6
f 512/3/6 513/3/6 515/3/6
f 514/4/6 498/4/6 515/4/6
f 508/3/6 512/3/6 515/3/6
f 498/3/6 508/3/6 515/3/6
f 515/3/6 513/3/6 516/3/6
f 495/4/6 496/4/6 517/4/6
f 516/3/6 513/3/6 517/3/6
f 513/3/6 511/3/6 517/3/6
f 511/3/6 495/3/6 517/3/6
f 517/4/6 496/4/6 518/4/6
f 518/4/6 496/4/6 519/4/6
f 515/5/6 516/5/6 520/5/6
f 517/4/6 518/4/6 521/4/6
f 520/5/6 516/5/6 521/5/6
f 516/4/6 517/4/6 521/4/6
f 521/4/6 518/4/6 522/4/6
f 523/3/6 524/3/6 525/3/6
f 525/3/6 524/3/6 526/3/6
f 523/3/6 525/3/6 527/3/6
f 526/3/6 524/3/6 528/3/6
f 523/3/6 527/3/6 529/3/6
f 527/3/6 528/3/6 529/3/6
f 528/3/6 524/3/6 530/3/6
f 529/3/6 528/3/6 530/3/6
f 531/3/6 532/3/6 533/3/6
f 533/3/6 532/3/6 534/3/6
f 531/3/6 533/3/6 535/3/6
f 534/3/6 532/3/6 536/3/6
f 531/3/6 535/3/6 537/3/6
f 535/3/6 536/3/6 537/3/6
f 536/3/6 532/3/6 538/3/6
f 537/3/6 536/3/6 538/3/6
f 539/3/6 540/3/6 541/3/6
f 541/3/6 540/3/6 542/3/6
