# MagicaVoxel @ Ephtracy

# group
o 

# material
mtllib Trashcan.mtl
usemtl palette

# normals
vn -1 0 0
vn 1 0 0
vn 0 0 1
vn 0 0 -1
vn 0 -1 0
vn 0 1 0

# texcoords
vt 0.982422 0.5
vt 0.986328 0.5
vt 0.994141 0.5

# verts
v -0.9 0.2 0.5
v -0.9 0.2 0.4
v -0.9 0.2 0.3
v -0.9 0.2 0.2
v -0.9 0.2 0.1
v -0.9 0.2 0
v -0.9 0.2 -0.1
v -0.9 0.2 -0.2
v -0.9 1.4 0.5
v -0.9 1.4 0.4
v -0.9 1.4 0.3
v -0.9 1.4 0.2
v -0.9 1.4 0.1
v -0.9 1.4 0
v -0.9 1.4 -0.1
v -0.9 1.4 -0.2
v -0.8 0.1 0.7
v -0.8 0.1 0.6
v -0.8 0.1 -0.2
v -0.8 0.2 0.5
v -0.8 0.2 0.4
v -0.8 0.2 0.3
v -0.8 0.2 0.2
v -0.8 0.2 0.1
v -0.8 0.2 0
v -0.8 0.2 -0.1
v -0.8 0.2 -0.2
v -0.8 1.4 0.5
v -0.8 1.4 0.4
v -0.8 1.4 0.3
v -0.8 1.4 0.2
v -0.8 1.4 0.1
v -0.8 1.4 0
v -0.8 1.4 -0.1
v -0.8 1.4 -0.2
v -0.8 1.5 0.6
v -0.8 1.5 -0.2
v -0.8 1.6 0.7
v -0.8 1.6 -0.2
v -0.8 1.7 0.7
v -0.8 1.7 -0.2
v -0.7 0 0.7
v -0.7 0 -0.2
v -0.7 0.1 0.8
v -0.7 0.1 0.7
v -0.7 0.1 0.6
v -0.7 0.1 -0.2
v -0.7 0.1 -0.3
v -0.7 1.5 0.8
v -0.7 1.5 0.7
v -0.7 1.5 -0.2
v -0.7 1.6 0.8
v -0.7 1.6 0.7
v -0.7 1.6 -0.2
v -0.7 1.6 -0.3
v -0.7 1.6 -0.4
v -0.7 1.7 0.8
v -0.7 1.7 0.7
v -0.7 1.7 -0.2
v -0.7 1.7 -0.4
v -0.6 0.2 0.9
v -0.6 0.2 0.8
v -0.6 0.2 -0.3
v -0.6 0.2 -0.4
v -0.6 1.5 0.9
v -0.6 1.5 0.8
v -0.6 1.5 -0.3
v -0.6 1.5 -0.4
v -0.6 1.7 0.7
v -0.6 1.7 -0.3
v -0.6 1.8 0.7
v -0.6 1.8 -0.3
v -0.5 1.8 0.6
v -0.5 1.8 -0.1
v -0.5 1.9 0.6
v -0.5 1.9 -0.1
v -0.4 0.2 0.9
v -0.4 0.2 0.8
v -0.4 0.2 -0.3
v -0.4 0.2 -0.4
v -0.4 1.5 0.9
v -0.4 1.5 0.8
v -0.4 1.5 -0.3
v -0.4 1.5 -0.4
v -0.3 1.9 0.3
v -0.3 1.9 0.2
v -0.3 2.1 0.3
v -0.3 2.1 0.2
v -0.2 0.2 0.9
v -0.2 0.2 0.8
v -0.2 0.2 -0.3
v -0.2 0.2 -0.4
v -0.2 1.5 0.9
v -0.2 1.5 0.8
v -0.2 1.5 -0.3
v -0.2 1.5 -0.4
v 0 0.2 0.9
v 0 0.2 0.8
v 0 0.2 -0.3
v 0 0.2 -0.4
v 0 1.5 0.9
v 0 1.5 0.8
v 0 1.5 -0.3
v 0 1.5 -0.4
v 0.2 0.2 0.9
v 0.2 0.2 0.8
v 0.2 0.2 -0.3
v 0.2 0.2 -0.4
v 0.2 1.5 0.9
v 0.2 1.5 0.8
v 0.2 1.5 -0.3
v 0.2 1.5 -0.4
v 0.4 0.2 0.9
v 0.4 0.2 0.8
v 0.4 0.2 -0.3
v 0.4 0.2 -0.4
v 0.4 1.5 0.9
v 0.4 1.5 0.8
v 0.4 1.5 -0.3
v 0.4 1.5 -0.4
v -0.5 0.2 0.9
v -0.5 0.2 0.8
v -0.5 0.2 -0.3
v -0.5 0.2 -0.4
v -0.5 1.5 0.9
v -0.5 1.5 0.8
v -0.5 1.5 -0.3
v -0.5 1.5 -0.4
v -0.3 0.2 0.9
v -0.3 0.2 0.8
v -0.3 0.2 -0.3
v -0.3 0.2 -0.4
v -0.3 1.5 0.9
v -0.3 1.5 0.8
v -0.3 1.5 -0.3
v -0.3 1.5 -0.4
v -0.1 0.2 0.9
v -0.1 0.2 0.8
v -0.1 0.2 -0.3
v -0.1 0.2 -0.4
v -0.1 1.5 0.9
v -0.1 1.5 0.8
v -0.1 1.5 -0.3
v -0.1 1.5 -0.4
v 0.1 0.2 0.9
v 0.1 0.2 0.8
v 0.1 0.2 -0.3
v 0.1 0.2 -0.4
v 0.1 1.5 0.9
v 0.1 1.5 0.8
v 0.1 1.5 -0.3
v 0.1 1.5 -0.4
v 0.1 1.9 0.3
v 0.1 1.9 0.2
v 0.1 2.1 0.3
v 0.1 2.1 0.2
v 0.3 0.2 0.9
v 0.3 0.2 0.8
v 0.3 0.2 -0.3
v 0.3 0.2 -0.4
v 0.3 1.5 0.9
v 0.3 1.5 0.8
v 0.3 1.5 -0.3
v 0.3 1.5 -0.4
v 0.3 1.8 0.6
v 0.3 1.8 -0.1
v 0.3 1.9 0.6
v 0.3 1.9 -0.1
v 0.4 1.7 0.7
v 0.4 1.7 -0.3
v 0.4 1.8 0.7
v 0.4 1.8 -0.3
v 0.5 0 0.7
v 0.5 0 -0.2
v 0.5 0.1 0.8
v 0.5 0.1 0.7
v 0.5 0.1 0.6
v 0.5 0.1 -0.1
v 0.5 0.1 -0.2
v 0.5 0.1 -0.3
v 0.5 0.2 0.9
v 0.5 0.2 0.8
v 0.5 0.2 -0.3
v 0.5 0.2 -0.4
v 0.5 1.5 0.9
v 0.5 1.5 0.8
v 0.5 1.5 0.7
v 0.5 1.5 -0.2
v 0.5 1.5 -0.3
v 0.5 1.5 -0.4
v 0.5 1.6 0.8
v 0.5 1.6 0.7
v 0.5 1.6 0.6
v 0.5 1.6 -0.2
v 0.5 1.6 -0.3
v 0.5 1.6 -0.4
v 0.5 1.7 0.8
v 0.5 1.7 0.6
v 0.5 1.7 -0.2
v 0.5 1.7 -0.4
v 0.6 0.1 0.7
v 0.6 0.1 0.6
v 0.6 0.1 -0.1
v 0.6 0.1 -0.2
v 0.6 0.2 0.6
v 0.6 0.2 0.5
v 0.6 0.2 0.4
v 0.6 0.2 0.3
v 0.6 0.2 0.2
v 0.6 0.2 0.1
v 0.6 0.2 0
v 0.6 0.2 -0.1
v 0.6 1.5 0.6
v 0.6 1.5 0.5
v 0.6 1.5 0.4
v 0.6 1.5 0.3
v 0.6 1.5 0.2
v 0.6 1.5 0.1
v 0.6 1.5 0
v 0.6 1.5 -0.1
v 0.6 1.6 0.7
v 0.6 1.6 0.6
v 0.6 1.6 -0.2
v 0.6 1.7 0.6
v 0.6 1.7 -0.2
v 0.7 0.2 0.6
v 0.7 0.2 0.5
v 0.7 0.2 0.4
v 0.7 0.2 0.3
v 0.7 0.2 0.2
v 0.7 0.2 0.1
v 0.7 0.2 0
v 0.7 0.2 -0.1
v 0.7 1.5 0.6
v 0.7 1.5 0.5
v 0.7 1.5 0.4
v 0.7 1.5 0.3
v 0.7 1.5 0.2
v 0.7 1.5 0.1
v 0.7 1.5 0
v 0.7 1.5 -0.1
v -0.6 0.2 0.9
v -0.6 1.5 0.9
v -0.5 0.2 0.9
v -0.5 1.5 0.9
v -0.4 0.2 0.9
v -0.4 1.5 0.9
v -0.3 0.2 0.9
v -0.3 1.5 0.9
v -0.2 0.2 0.9
v -0.2 1.5 0.9
v -0.1 0.2 0.9
v -0.1 1.5 0.9
v 0 0.2 0.9
v 0 1.5 0.9
v 0.1 0.2 0.9
v 0.1 1.5 0.9
v 0.2 0.2 0.9
v 0.2 1.5 0.9
v 0.3 0.2 0.9
v 0.3 1.5 0.9
v 0.4 0.2 0.9
v 0.4 1.5 0.9
v 0.5 0.2 0.9
v 0.5 1.5 0.9
v -0.7 0.1 0.8
v -0.7 1.5 0.8
v -0.7 1.6 0.8
v -0.7 1.7 0.8
v -0.6 0.2 0.8
v -0.6 1.5 0.8
v -0.5 0.2 0.8
v -0.5 1.5 0.8
v -0.4 0.2 0.8
v -0.4 1.5 0.8
v -0.3 0.2 0.8
v -0.3 1.5 0.8
v -0.2 0.2 0.8
v -0.2 1.5 0.8
v -0.1 0.2 0.8
v -0.1 1.5 0.8
v 0 0.2 0.8
v 0 1.5 0.8
v 0.1 0.2 0.8
v 0.1 1.5 0.8
v 0.2 0.2 0.8
v 0.2 1.5 0.8
v 0.3 0.2 0.8
v 0.3 1.5 0.8
v 0.4 0.2 0.8
v 0.4 1.5 0.8
v 0.5 0.1 0.8
v 0.5 0.2 0.8
v 0.5 1.5 0.8
v 0.5 1.6 0.8
v 0.5 1.7 0.8
v -0.8 0.1 0.7
v -0.8 1.6 0.7
v -0.8 1.7 0.7
v -0.7 0 0.7
v -0.7 0.1 0.7
v -0.7 1.5 0.7
v -0.7 1.6 0.7
v -0.7 1.7 0.7
v -0.6 1.7 0.7
v -0.6 1.8 0.7
v 0.4 1.7 0.7
v 0.4 1.8 0.7
v 0.5 0 0.7
v 0.5 0.1 0.7
v 0.5 1.5 0.7
v 0.5 1.6 0.7
v 0.6 0.1 0.7
v 0.6 1.6 0.7
v -0.5 1.8 0.6
v -0.5 1.9 0.6
v 0.3 1.8 0.6
v 0.3 1.9 0.6
v 0.5 1.6 0.6
v 0.5 1.7 0.6
v 0.6 0.2 0.6
v 0.6 1.5 0.6
v 0.6 1.6 0.6
v 0.6 1.7 0.6
v 0.7 0.2 0.6
v 0.7 1.5 0.6
v -0.9 0.2 0.5
v -0.9 1.4 0.5
v -0.8 0.2 0.5
v -0.8 1.4 0.5
v 0.6 0.2 0.4
v 0.6 1.5 0.4
v 0.7 0.2 0.4
v 0.7 1.5 0.4
v -0.9 0.2 0.3
v -0.9 1.4 0.3
v -0.8 0.2 0.3
v -0.8 1.4 0.3
v -0.3 1.9 0.3
v -0.3 2.1 0.3
v -0.2 1.9 0.3
v -0.2 2 0.3
v 0 1.9 0.3
v 0 2 0.3
v 0.1 1.9 0.3
v 0.1 2.1 0.3
v 0.6 0.2 0.2
v 0.6 1.5 0.2
v 0.7 0.2 0.2
v 0.7 1.5 0.2
v -0.9 0.2 0.1
v -0.9 1.4 0.1
v -0.8 0.2 0.1
v -0.8 1.4 0.1
v 0.6 0.2 0
v 0.6 1.5 0
v 0.7 0.2 0
v 0.7 1.5 0
v -0.9 0.2 -0.1
v -0.9 1.4 -0.1
v -0.8 0.2 -0.1
v -0.8 1.4 -0.1
v 0.6 0.2 0.5
v 0.6 1.5 0.5
v 0.7 0.2 0.5
v 0.7 1.5 0.5
v -0.9 0.2 0.4
v -0.9 1.4 0.4
v -0.8 0.2 0.4
v -0.8 1.4 0.4
v 0.6 0.2 0.3
v 0.6 1.5 0.3
v 0.7 0.2 0.3
v 0.7 1.5 0.3
v -0.9 0.2 0.2
v -0.9 1.4 0.2
v -0.8 0.2 0.2
v -0.8 1.4 0.2
v -0.3 1.9 0.2
v -0.3 2.1 0.2
v -0.2 1.9 0.2
v -0.2 2 0.2
v 0 1.9 0.2
v 0 2 0.2
v 0.1 1.9 0.2
v 0.1 2.1 0.2
v 0.6 0.2 0.1
v 0.6 1.5 0.1
v 0.7 0.2 0.1
v 0.7 1.5 0.1
v -0.9 0.2 0
v -0.9 1.4 0
v -0.8 0.2 0
v -0.8 1.4 0
v -0.5 1.8 -0.1
v -0.5 1.9 -0.1
v 0.3 1.8 -0.1
v 0.3 1.9 -0.1
v 0.6 0.2 -0.1
v 0.6 1.5 -0.1
v 0.7 0.2 -0.1
v 0.7 1.5 -0.1
v -0.9 0.2 -0.2
v -0.9 1.4 -0.2
v -0.8 0.1 -0.2
v -0.8 0.2 -0.2
v -0.8 1.4 -0.2
v -0.8 1.5 -0.2
v -0.8 1.6 -0.2
v -0.8 1.7 -0.2
v -0.7 0 -0.2
v -0.7 0.1 -0.2
v -0.7 1.5 -0.2
v -0.7 1.6 -0.2
v -0.7 1.7 -0.2
v -0.6 0.1 -0.2
v 0.5 0 -0.2
v 0.5 0.1 -0.2
v 0.5 1.5 -0.2
v 0.5 1.6 -0.2
v 0.5 1.7 -0.2
v 0.6 0.1 -0.2
v 0.6 1.6 -0.2
v 0.6 1.7 -0.2
v -0.7 0.1 -0.3
v -0.7 1.6 -0.3
v -0.6 0.1 -0.3
v -0.6 0.2 -0.3
v -0.6 1.5 -0.3
v -0.6 1.7 -0.3
v -0.6 1.8 -0.3
v -0.5 0.2 -0.3
v -0.5 1.5 -0.3
v -0.4 0.2 -0.3
v -0.4 1.5 -0.3
v -0.3 0.2 -0.3
v -0.3 1.5 -0.3
v -0.2 0.2 -0.3
v -0.2 1.5 -0.3
v -0.1 0.2 -0.3
v -0.1 1.5 -0.3
v 0 0.2 -0.3
v 0 1.5 -0.3
v 0.1 0.2 -0.3
v 0.1 1.5 -0.3
v 0.2 0.2 -0.3
v 0.2 1.5 -0.3
v 0.3 0.2 -0.3
v 0.3 1.5 -0.3
v 0.4 0.2 -0.3
v 0.4 1.5 -0.3
v 0.4 1.7 -0.3
v 0.4 1.8 -0.3
v 0.5 0.1 -0.3
v 0.5 0.2 -0.3
v 0.5 1.5 -0.3
v 0.5 1.6 -0.3
v -0.7 1.6 -0.4
v -0.7 1.7 -0.4
v -0.6 0.2 -0.4
v -0.6 1.5 -0.4
v -0.5 0.2 -0.4
v -0.5 1.5 -0.4
v -0.4 0.2 -0.4
v -0.4 1.5 -0.4
v -0.3 0.2 -0.4
v -0.3 1.5 -0.4
v -0.2 0.2 -0.4
v -0.2 1.5 -0.4
v -0.1 0.2 -0.4
v -0.1 1.5 -0.4
v 0 0.2 -0.4
v 0 1.5 -0.4
v 0.1 0.2 -0.4
v 0.1 1.5 -0.4
v 0.2 0.2 -0.4
v 0.2 1.5 -0.4
v 0.3 0.2 -0.4
v 0.3 1.5 -0.4
v 0.4 0.2 -0.4
v 0.4 1.5 -0.4
v 0.5 0.2 -0.4
v 0.5 1.5 -0.4
v 0.5 1.6 -0.4
v 0.5 1.7 -0.4
v -0.7 0 0.7
v 0.5 0 0.7
v -0.6 0 0.6
v 0.4 0 0.6
v -0.6 0 -0.1
v 0.4 0 -0.1
v -0.7 0 -0.2
v 0.5 0 -0.2
v -0.7 0.1 0.8
v 0.5 0.1 0.8
v -0.8 0.1 0.7
v -0.7 0.1 0.7
v 0.5 0.1 0.7
v 0.6 0.1 0.7
v -0.8 0.1 0.6
v -0.7 0.1 0.6
v 0.5 0.1 0.6
v 0.6 0.1 0.6
v 0.5 0.1 -0.1
v 0.6 0.1 -0.1
v -0.8 0.1 -0.2
v -0.7 0.1 -0.2
v -0.6 0.1 -0.2
v 0.5 0.1 -0.2
v 0.6 0.1 -0.2
v -0.7 0.1 -0.3
v -0.6 0.1 -0.3
v 0.5 0.1 -0.3
v -0.6 0.2 0.9
v -0.5 0.2 0.9
v -0.4 0.2 0.9
v -0.3 0.2 0.9
v -0.2 0.2 0.9
v -0.1 0.2 0.9
v 0 0.2 0.9
v 0.1 0.2 0.9
v 0.2 0.2 0.9
v 0.3 0.2 0.9
v 0.4 0.2 0.9
v 0.5 0.2 0.9
v -0.6 0.2 0.8
v -0.5 0.2 0.8
v -0.4 0.2 0.8
v -0.3 0.2 0.8
v -0.2 0.2 0.8
v -0.1 0.2 0.8
v 0 0.2 0.8
v 0.1 0.2 0.8
v 0.2 0.2 0.8
v 0.3 0.2 0.8
v 0.4 0.2 0.8
v 0.5 0.2 0.8
v 0.6 0.2 0.6
v 0.7 0.2 0.6
v -0.9 0.2 0.5
v -0.8 0.2 0.5
v 0.6 0.2 0.5
v 0.7 0.2 0.5
v -0.9 0.2 0.4
v -0.8 0.2 0.4
v 0.6 0.2 0.4
v 0.7 0.2 0.4
v -0.9 0.2 0.3
v -0.8 0.2 0.3
v 0.6 0.2 0.3
v 0.7 0.2 0.3
v -0.9 0.2 0.2
v -0.8 0.2 0.2
v 0.6 0.2 0.2
v 0.7 0.2 0.2
v -0.9 0.2 0.1
v -0.8 0.2 0.1
v 0.6 0.2 0.1
v 0.7 0.2 0.1
v -0.9 0.2 0
v -0.8 0.2 0
v 0.6 0.2 0
v 0.7 0.2 0
v -0.9 0.2 -0.1
v -0.8 0.2 -0.1
v 0.6 0.2 -0.1
v 0.7 0.2 -0.1
v -0.9 0.2 -0.2
v -0.8 0.2 -0.2
v -0.6 0.2 -0.3
v -0.5 0.2 -0.3
v -0.4 0.2 -0.3
v -0.3 0.2 -0.3
v -0.2 0.2 -0.3
v -0.1 0.2 -0.3
v 0 0.2 -0.3
v 0.1 0.2 -0.3
v 0.2 0.2 -0.3
v 0.3 0.2 -0.3
v 0.4 0.2 -0.3
v 0.5 0.2 -0.3
v -0.6 0.2 -0.4
v -0.5 0.2 -0.4
v -0.4 0.2 -0.4
v -0.3 0.2 -0.4
v -0.2 0.2 -0.4
v -0.1 0.2 -0.4
v 0 0.2 -0.4
v 0.1 0.2 -0.4
v 0.2 0.2 -0.4
v 0.3 0.2 -0.4
v 0.4 0.2 -0.4
v 0.5 0.2 -0.4
v -0.7 1.6 -0.3
v 0.5 1.6 -0.3
v -0.7 1.6 -0.4
v 0.5 1.6 -0.4
v -0.9 1.4 0.5
v -0.8 1.4 0.5
v -0.9 1.4 0.4
v -0.8 1.4 0.4
v -0.9 1.4 0.3
v -0.8 1.4 0.3
v -0.9 1.4 0.2
v -0.8 1.4 0.2
v -0.9 1.4 0.1
v -0.8 1.4 0.1
v -0.9 1.4 0
v -0.8 1.4 0
v -0.9 1.4 -0.1
v -0.8 1.4 -0.1
v -0.9 1.4 -0.2
v -0.8 1.4 -0.2
v -0.6 1.5 0.9
v -0.5 1.5 0.9
v -0.4 1.5 0.9
v -0.3 1.5 0.9
v -0.2 1.5 0.9
v -0.1 1.5 0.9
v 0 1.5 0.9
v 0.1 1.5 0.9
v 0.2 1.5 0.9
v 0.3 1.5 0.9
v 0.4 1.5 0.9
v 0.5 1.5 0.9
v -0.6 1.5 0.8
v -0.5 1.5 0.8
v -0.4 1.5 0.8
v -0.3 1.5 0.8
v -0.2 1.5 0.8
v -0.1 1.5 0.8
v 0 1.5 0.8
v 0.1 1.5 0.8
v 0.2 1.5 0.8
v 0.3 1.5 0.8
v 0.4 1.5 0.8
v 0.5 1.5 0.8
v 0.6 1.5 0.6
v 0.7 1.5 0.6
v 0.6 1.5 0.5
v 0.7 1.5 0.5
v 0.6 1.5 0.4
v 0.7 1.5 0.4
v 0.6 1.5 0.3
v 0.7 1.5 0.3
v 0.6 1.5 0.2
v 0.7 1.5 0.2
v 0.6 1.5 0.1
v 0.7 1.5 0.1
v 0.6 1.5 0
v 0.7 1.5 0
v 0.6 1.5 -0.1
v 0.7 1.5 -0.1
v -0.6 1.5 -0.3
v -0.5 1.5 -0.3
v -0.4 1.5 -0.3
v -0.3 1.5 -0.3
v -0.2 1.5 -0.3
v -0.1 1.5 -0.3
v 0 1.5 -0.3
v 0.1 1.5 -0.3
v 0.2 1.5 -0.3
v 0.3 1.5 -0.3
v 0.4 1.5 -0.3
v 0.5 1.5 -0.3
v -0.6 1.5 -0.4
v -0.5 1.5 -0.4
v -0.4 1.5 -0.4
v -0.3 1.5 -0.4
v -0.2 1.5 -0.4
v -0.1 1.5 -0.4
v 0 1.5 -0.4
v 0.1 1.5 -0.4
v 0.2 1.5 -0.4
v 0.3 1.5 -0.4
v 0.4 1.5 -0.4
v 0.5 1.5 -0.4
v 0.5 1.6 0.7
v 0.6 1.6 0.7
v 0.5 1.6 0.6
v 0.6 1.6 0.6
v -0.7 1.7 0.8
v 0.5 1.7 0.8
v -0.8 1.7 0.7
v -0.7 1.7 0.7
v -0.6 1.7 0.7
v 0.4 1.7 0.7
v 0.5 1.7 0.6
v 0.6 1.7 0.6
v -0.8 1.7 -0.2
v -0.7 1.7 -0.2
v 0.5 1.7 -0.2
v 0.6 1.7 -0.2
v -0.6 1.7 -0.3
v 0.4 1.7 -0.3
v -0.7 1.7 -0.4
v 0.5 1.7 -0.4
v -0.6 1.8 0.7
v 0.4 1.8 0.7
v -0.5 1.8 0.6
v 0.3 1.8 0.6
v -0.5 1.8 -0.1
v 0.3 1.8 -0.1
v -0.6 1.8 -0.3
v 0.4 1.8 -0.3
v -0.5 1.9 0.6
v 0.3 1.9 0.6
v -0.4 1.9 0.5
v 0.2 1.9 0.5
v -0.3 1.9 0.3
v -0.2 1.9 0.3
v 0 1.9 0.3
v 0.1 1.9 0.3
v -0.3 1.9 0.2
v -0.2 1.9 0.2
v 0 1.9 0.2
v 0.1 1.9 0.2
v -0.4 1.9 0
v 0.2 1.9 0
v -0.5 1.9 -0.1
v 0.3 1.9 -0.1
v -0.3 2.1 0.3
v 0.1 2.1 0.3
v -0.3 2.1 0.2
v 0.1 2.1 0.2

# faces
f 9/2/1 2/2/1 1/2/1
f 10/2/1 2/2/1 9/2/1
f 11/2/1 4/2/1 3/2/1
f 12/2/1 4/2/1 11/2/1
f 13/2/1 6/2/1 5/2/1
f 14/2/1 6/2/1 13/2/1
f 15/2/1 8/2/1 7/2/1
f 16/2/1 8/2/1 15/2/1
f 20/1/1 19/1/1 18/1/1
f 21/1/1 19/1/1 20/1/1
f 22/1/1 19/1/1 21/1/1
f 23/1/1 19/1/1 22/1/1
f 24/1/1 19/1/1 23/1/1
f 25/1/1 19/1/1 24/1/1
f 26/1/1 19/1/1 25/1/1
f 27/1/1 19/1/1 26/1/1
f 28/1/1 20/1/1 18/1/1
f 29/1/1 22/1/1 21/1/1
f 30/1/1 22/1/1 29/1/1
f 31/1/1 24/1/1 23/1/1
f 32/1/1 24/1/1 31/1/1
f 33/1/1 26/1/1 25/1/1
f 34/1/1 26/1/1 33/1/1
f 36/3/1 18/3/1 17/3/1
f 36/1/1 35/1/1 34/1/1
f 36/1/1 34/1/1 33/1/1
f 36/1/1 33/1/1 32/1/1
f 36/1/1 32/1/1 31/1/1
f 36/1/1 31/1/1 30/1/1
f 36/1/1 28/1/1 18/1/1
f 36/1/1 29/1/1 28/1/1
f 36/1/1 30/1/1 29/1/1
f 37/1/1 35/1/1 36/1/1
f 38/3/1 36/3/1 17/3/1
f 38/3/1 37/3/1 36/3/1
f 39/3/1 37/3/1 38/3/1
f 40/1/1 39/1/1 38/1/1
f 41/1/1 39/1/1 40/1/1
f 45/3/1 43/3/1 42/3/1
f 46/3/1 43/3/1 45/3/1
f 47/3/1 43/3/1 46/3/1
f 49/1/1 45/1/1 44/1/1
f 50/1/1 45/1/1 49/1/1
f 51/3/1 48/3/1 47/3/1
f 52/3/1 50/3/1 49/3/1
f 53/3/1 50/3/1 52/3/1
f 54/3/1 48/3/1 51/3/1
f 55/3/1 48/3/1 54/3/1
f 57/1/1 53/1/1 52/1/1
f 58/1/1 53/1/1 57/1/1
f 59/1/1 56/1/1 55/1/1
f 59/1/1 55/1/1 54/1/1
f 60/1/1 56/1/1 59/1/1
f 65/2/1 62/2/1 61/2/1
f 66/2/1 62/2/1 65/2/1
f 67/2/1 64/2/1 63/2/1
f 68/2/1 64/2/1 67/2/1
f 71/1/1 70/1/1 69/1/1
f 72/1/1 70/1/1 71/1/1
f 75/3/1 74/3/1 73/3/1
f 76/3/1 74/3/1 75/3/1
f 81/2/1 78/2/1 77/2/1
f 82/2/1 78/2/1 81/2/1
f 83/2/1 80/2/1 79/2/1
f 84/2/1 80/2/1 83/2/1
f 87/3/1 86/3/1 85/3/1
f 88/3/1 86/3/1 87/3/1
f 93/2/1 90/2/1 89/2/1
f 94/2/1 90/2/1 93/2/1
f 95/2/1 92/2/1 91/2/1
f 96/2/1 92/2/1 95/2/1
f 101/2/1 98/2/1 97/2/1
f 102/2/1 98/2/1 101/2/1
f 103/2/1 100/2/1 99/2/1
f 104/2/1 100/2/1 103/2/1
f 109/2/1 106/2/1 105/2/1
f 110/2/1 106/2/1 109/2/1
f 111/2/1 108/2/1 107/2/1
f 112/2/1 108/2/1 111/2/1
f 117/2/1 114/2/1 113/2/1
f 118/2/1 114/2/1 117/2/1
f 119/2/1 116/2/1 115/2/1
f 120/2/1 116/2/1 119/2/1
f 121/2/2 122/2/2 125/2/2
f 125/2/2 122/2/2 126/2/2
f 123/2/2 124/2/2 127/2/2
f 127/2/2 124/2/2 128/2/2
f 129/2/2 130/2/2 133/2/2
f 133/2/2 130/2/2 134/2/2
f 131/2/2 132/2/2 135/2/2
f 135/2/2 132/2/2 136/2/2
f 137/2/2 138/2/2 141/2/2
f 141/2/2 138/2/2 142/2/2
f 139/2/2 140/2/2 143/2/2
f 143/2/2 140/2/2 144/2/2
f 145/2/2 146/2/2 149/2/2
f 149/2/2 146/2/2 150/2/2
f 147/2/2 148/2/2 151/2/2
f 151/2/2 148/2/2 152/2/2
f 153/3/2 154/3/2 155/3/2
f 155/3/2 154/3/2 156/3/2
f 157/2/2 158/2/2 161/2/2
f 161/2/2 158/2/2 162/2/2
f 159/2/2 160/2/2 163/2/2
f 163/2/2 160/2/2 164/2/2
f 165/3/2 166/3/2 167/3/2
f 167/3/2 166/3/2 168/3/2
f 169/1/2 170/1/2 171/1/2
f 171/1/2 170/1/2 172/1/2
f 173/3/2 174/3/2 176/3/2
f 176/3/2 174/3/2 177/3/2
f 177/3/2 174/3/2 178/3/2
f 178/3/2 174/3/2 179/3/2
f 175/1/2 176/1/2 182/1/2
f 179/1/2 180/1/2 183/1/2
f 181/2/2 182/2/2 185/2/2
f 182/1/2 176/1/2 186/1/2
f 185/2/2 182/2/2 186/2/2
f 186/1/2 176/1/2 187/1/2
f 179/1/2 183/1/2 188/1/2
f 183/2/2 184/2/2 189/2/2
f 188/1/2 183/1/2 189/1/2
f 189/2/2 184/2/2 190/2/2
f 186/3/2 187/3/2 191/3/2
f 191/3/2 187/3/2 192/3/2
f 188/3/2 189/3/2 194/3/2
f 194/3/2 189/3/2 195/3/2
f 192/1/2 193/1/2 197/1/2
f 191/1/2 192/1/2 197/1/2
f 197/1/2 193/1/2 198/1/2
f 195/1/2 196/1/2 199/1/2
f 194/1/2 195/1/2 199/1/2
f 199/1/2 196/1/2 200/1/2
f 201/3/2 202/3/2 205/3/2
f 202/1/2 203/1/2 205/1/2
f 205/1/2 203/1/2 206/1/2
f 206/1/2 203/1/2 207/1/2
f 207/1/2 203/1/2 208/1/2
f 208/1/2 203/1/2 209/1/2
f 209/1/2 203/1/2 210/1/2
f 210/1/2 203/1/2 211/1/2
f 203/3/2 204/3/2 212/3/2
f 211/1/2 203/1/2 212/1/2
f 201/3/2 205/3/2 213/3/2
f 206/1/2 207/1/2 214/1/2
f 214/1/2 207/1/2 215/1/2
f 208/1/2 209/1/2 216/1/2
f 216/1/2 209/1/2 217/1/2
f 210/1/2 211/1/2 218/1/2
f 218/1/2 211/1/2 219/1/2
f 212/3/2 204/3/2 220/3/2
f 216/3/2 217/3/2 221/3/2
f 219/3/2 220/3/2 221/3/2
f 218/3/2 219/3/2 221/3/2
f 214/3/2 215/3/2 221/3/2
f 217/3/2 218/3/2 221/3/2
f 201/3/2 213/3/2 221/3/2
f 215/3/2 216/3/2 221/3/2
f 213/3/2 214/3/2 221/3/2
f 221/3/2 220/3/2 222/3/2
f 220/3/2 204/3/2 223/3/2
f 222/3/2 220/3/2 223/3/2
f 222/1/2 223/1/2 224/1/2
f 224/1/2 223/1/2 225/1/2
f 226/2/2 227/2/2 234/2/2
f 234/2/2 227/2/2 235/2/2
f 228/2/2 229/2/2 236/2/2
f 236/2/2 229/2/2 237/2/2
f 230/2/2 231/2/2 238/2/2
f 238/2/2 231/2/2 239/2/2
f 232/2/2 233/2/2 240/2/2
f 240/2/2 233/2/2 241/2/2
f 244/2/3 243/2/3 242/2/3
f 245/2/3 243/2/3 244/2/3
f 248/2/3 247/2/3 246/2/3
f 249/2/3 247/2/3 248/2/3
f 252/2/3 251/2/3 250/2/3
f 253/2/3 251/2/3 252/2/3
f 256/2/3 255/2/3 254/2/3
f 257/2/3 255/2/3 256/2/3
f 260/2/3 259/2/3 258/2/3
f 261/2/3 259/2/3 260/2/3
f 264/2/3 263/2/3 262/2/3
f 265/2/3 263/2/3 264/2/3
f 270/1/3 267/1/3 266/1/3
f 271/3/3 268/3/3 267/3/3
f 271/1/3 267/1/3 270/1/3
f 272/1/3 270/1/3 266/1/3
f 273/3/3 268/3/3 271/3/3
f 274/1/3 272/1/3 266/1/3
f 274/1/3 273/1/3 272/1/3
f 275/3/3 268/3/3 273/3/3
f 275/1/3 273/1/3 274/1/3
f 276/1/3 274/1/3 266/1/3
f 277/3/3 268/3/3 275/3/3
f 278/1/3 276/1/3 266/1/3
f 278/1/3 277/1/3 276/1/3
f 279/3/3 268/3/3 277/3/3
f 279/1/3 277/1/3 278/1/3
f 280/1/3 278/1/3 266/1/3
f 281/3/3 268/3/3 279/3/3
f 282/1/3 280/1/3 266/1/3
f 282/1/3 281/1/3 280/1/3
f 283/3/3 268/3/3 281/3/3
f 283/1/3 281/1/3 282/1/3
f 284/1/3 282/1/3 266/1/3
f 285/3/3 268/3/3 283/3/3
f 286/1/3 284/1/3 266/1/3
f 286/1/3 285/1/3 284/1/3
f 287/3/3 268/3/3 285/3/3
f 287/1/3 285/1/3 286/1/3
f 288/1/3 286/1/3 266/1/3
f 289/3/3 268/3/3 287/3/3
f 290/1/3 288/1/3 266/1/3
f 290/1/3 289/1/3 288/1/3
f 291/3/3 268/3/3 289/3/3
f 291/1/3 289/1/3 290/1/3
f 292/1/3 290/1/3 266/1/3
f 293/1/3 290/1/3 292/1/3
f 294/3/3 268/3/3 291/3/3
f 295/1/3 269/1/3 268/1/3
f 295/3/3 268/3/3 294/3/3
f 296/1/3 269/1/3 295/1/3
f 301/3/3 298/3/3 297/3/3
f 302/3/3 298/3/3 301/3/3
f 303/1/3 299/1/3 298/1/3
f 303/3/3 298/3/3 302/3/3
f 304/1/3 299/1/3 303/1/3
f 307/1/3 306/1/3 305/1/3
f 308/1/3 306/1/3 307/1/3
f 309/3/3 301/3/3 300/3/3
f 310/3/3 301/3/3 309/3/3
f 313/3/3 312/3/3 311/3/3
f 313/3/3 311/3/3 310/3/3
f 314/3/3 312/3/3 313/3/3
f 317/3/3 316/3/3 315/3/3
f 318/3/3 316/3/3 317/3/3
f 323/1/3 320/1/3 319/1/3
f 324/1/3 320/1/3 323/1/3
f 325/2/3 322/2/3 321/2/3
f 326/2/3 322/2/3 325/2/3
f 329/2/3 328/2/3 327/2/3
f 330/2/3 328/2/3 329/2/3
f 333/2/3 332/2/3 331/2/3
f 334/2/3 332/2/3 333/2/3
f 337/2/3 336/2/3 335/2/3
f 338/2/3 336/2/3 337/2/3
f 341/3/3 340/3/3 339/3/3
f 342/3/3 340/3/3 341/3/3
f 343/1/3 342/1/3 341/1/3
f 344/3/3 340/3/3 342/3/3
f 344/1/3 342/1/3 343/1/3
f 345/3/3 344/3/3 343/3/3
f 346/3/3 340/3/3 344/3/3
f 346/3/3 344/3/3 345/3/3
f 349/2/3 348/2/3 347/2/3
f 350/2/3 348/2/3 349/2/3
f 353/2/3 352/2/3 351/2/3
f 354/2/3 352/2/3 353/2/3
f 357/2/3 356/2/3 355/2/3
f 358/2/3 356/2/3 357/2/3
f 361/2/3 360/2/3 359/2/3
f 362/2/3 360/2/3 361/2/3
f 363/2/4 364/2/4 365/2/4
f 365/2/4 364/2/4 366/2/4
f 367/2/4 368/2/4 369/2/4
f 369/2/4 368/2/4 370/2/4
f 371/2/4 372/2/4 373/2/4
f 373/2/4 372/2/4 374/2/4
f 375/2/4 376/2/4 377/2/4
f 377/2/4 376/2/4 378/2/4
f 379/3/4 380/3/4 381/3/4
f 381/3/4 380/3/4 382/3/4
f 381/1/4 382/1/4 383/1/4
f 382/3/4 380/3/4 384/3/4
f 383/1/4 382/1/4 384/1/4
f 383/3/4 384/3/4 385/3/4
f 384/3/4 380/3/4 386/3/4
f 385/3/4 384/3/4 386/3/4
f 387/2/4 388/2/4 389/2/4
f 389/2/4 388/2/4 390/2/4
f 391/2/4 392/2/4 393/2/4
f 393/2/4 392/2/4 394/2/4
f 395/3/4 396/3/4 397/3/4
f 397/3/4 396/3/4 398/3/4
f 399/2/4 400/2/4 401/2/4
f 401/2/4 400/2/4 402/2/4
f 403/2/4 404/2/4 406/2/4
f 406/2/4 404/2/4 407/2/4
f 405/1/4 406/1/4 412/1/4
f 406/1/4 407/1/4 412/1/4
f 407/1/4 408/1/4 412/1/4
f 408/3/4 409/3/4 413/3/4
f 412/1/4 408/1/4 413/1/4
f 409/1/4 410/1/4 414/1/4
f 413/3/4 409/3/4 414/3/4
f 414/1/4 410/1/4 415/1/4
f 411/3/4 412/3/4 416/3/4
f 411/3/4 416/3/4 417/3/4
f 417/3/4 416/3/4 418/3/4
f 418/3/4 419/3/4 422/3/4
f 419/3/4 420/3/4 422/3/4
f 420/1/4 421/1/4 423/1/4
f 422/3/4 420/3/4 423/3/4
f 423/1/4 421/1/4 424/1/4
f 425/3/4 426/3/4 427/3/4
f 427/3/4 426/3/4 428/3/4
f 428/3/4 426/3/4 429/3/4
f 427/1/4 428/1/4 432/1/4
f 429/3/4 426/3/4 433/3/4
f 427/1/4 432/1/4 434/1/4
f 432/1/4 433/1/4 434/1/4
f 433/3/4 426/3/4 435/3/4
f 434/1/4 433/1/4 435/1/4
f 427/1/4 434/1/4 436/1/4
f 435/3/4 426/3/4 437/3/4
f 427/1/4 436/1/4 438/1/4
f 436/1/4 437/1/4 438/1/4
f 437/3/4 426/3/4 439/3/4
f 438/1/4 437/1/4 439/1/4
f 427/1/4 438/1/4 440/1/4
f 439/3/4 426/3/4 441/3/4
f 427/1/4 440/1/4 442/1/4
f 440/1/4 441/1/4 442/1/4
f 441/3/4 426/3/4 443/3/4
f 442/1/4 441/1/4 443/1/4
f 427/1/4 442/1/4 444/1/4
f 443/3/4 426/3/4 445/3/4
f 427/1/4 444/1/4 446/1/4
f 444/1/4 445/1/4 446/1/4
f 445/3/4 426/3/4 447/3/4
f 446/1/4 445/1/4 447/1/4
f 427/1/4 446/1/4 448/1/4
f 447/3/4 426/3/4 449/3/4
f 427/1/4 448/1/4 450/1/4
f 448/1/4 449/1/4 450/1/4
f 449/3/4 426/3/4 451/3/4
f 450/1/4 449/1/4 451/1/4
f 430/1/4 431/1/4 452/1/4
f 452/1/4 431/1/4 453/1/4
f 427/1/4 450/1/4 454/1/4
f 454/1/4 450/1/4 455/1/4
f 451/3/4 426/3/4 456/3/4
f 456/3/4 426/3/4 457/3/4
f 460/2/4 461/2/4 462/2/4
f 462/2/4 461/2/4 463/2/4
f 464/2/4 465/2/4 466/2/4
f 466/2/4 465/2/4 467/2/4
f 468/2/4 469/2/4 470/2/4
f 470/2/4 469/2/4 471/2/4
f 472/2/4 473/2/4 474/2/4
f 474/2/4 473/2/4 475/2/4
f 476/2/4 477/2/4 478/2/4
f 478/2/4 477/2/4 479/2/4
f 480/2/4 481/2/4 482/2/4
f 482/2/4 481/2/4 483/2/4
f 458/1/4 459/1/4 484/1/4
f 484/1/4 459/1/4 485/1/4
f 488/3/5 487/3/5 486/3/5
f 489/3/5 487/3/5 488/3/5
f 490/3/5 488/3/5 486/3/5
f 490/1/5 489/1/5 488/1/5
f 491/3/5 487/3/5 489/3/5
f 491/1/5 489/1/5 490/1/5
f 492/3/5 490/3/5 486/3/5
f 492/3/5 491/3/5 490/3/5
f 493/3/5 487/3/5 491/3/5
f 493/3/5 491/3/5 492/3/5
f 497/1/5 495/1/5 494/1/5
f 498/1/5 495/1/5 497/1/5
f 500/3/5 497/3/5 496/3/5
f 501/3/5 497/3/5 500/3/5
f 502/3/5 499/3/5 498/3/5
f 503/3/5 499/3/5 502/3/5
f 504/1/5 503/1/5 502/1/5
f 505/1/5 503/1/5 504/1/5
f 506/1/5 501/1/5 500/1/5
f 507/1/5 501/1/5 506/1/5
f 509/3/5 505/3/5 504/3/5
f 510/3/5 505/3/5 509/3/5
f 511/3/5 508/3/5 507/3/5
f 512/1/5 509/1/5 508/1/5
f 512/3/5 508/3/5 511/3/5
f 513/1/5 509/1/5 512/1/5
f 526/2/5 515/2/5 514/2/5
f 527/2/5 515/2/5 526/2/5
f 528/2/5 517/2/5 516/2/5
f 529/2/5 517/2/5 528/2/5
f 530/2/5 519/2/5 518/2/5
f 531/2/5 519/2/5 530/2/5
f 532/2/5 521/2/5 520/2/5
f 533/2/5 521/2/5 532/2/5
f 534/2/5 523/2/5 522/2/5
f 535/2/5 523/2/5 534/2/5
f 536/2/5 525/2/5 524/2/5
f 537/2/5 525/2/5 536/2/5
f 542/2/5 539/2/5 538/2/5
f 543/2/5 539/2/5 542/2/5
f 544/2/5 541/2/5 540/2/5
f 545/2/5 541/2/5 544/2/5
f 550/2/5 547/2/5 546/2/5
f 551/2/5 547/2/5 550/2/5
f 552/2/5 549/2/5 548/2/5
f 553/2/5 549/2/5 552/2/5
f 558/2/5 555/2/5 554/2/5
f 559/2/5 555/2/5 558/2/5
f 560/2/5 557/2/5 556/2/5
f 561/2/5 557/2/5 560/2/5
f 566/2/5 563/2/5 562/2/5
f 567/2/5 563/2/5 566/2/5
f 568/2/5 565/2/5 564/2/5
f 569/2/5 565/2/5 568/2/5
f 582/2/5 571/2/5 570/2/5
f 583/2/5 571/2/5 582/2/5
f 584/2/5 573/2/5 572/2/5
f 585/2/5 573/2/5 584/2/5
f 586/2/5 575/2/5 574/2/5
f 587/2/5 575/2/5 586/2/5
f 588/2/5 577/2/5 576/2/5
f 589/2/5 577/2/5 588/2/5
f 590/2/5 579/2/5 578/2/5
f 591/2/5 579/2/5 590/2/5
f 592/2/5 581/2/5 580/2/5
f 593/2/5 581/2/5 592/2/5
f 596/1/5 595/1/5 594/1/5
f 597/1/5 595/1/5 596/1/5
f 598/2/6 599/2/6 600/2/6
f 600/2/6 599/2/6 601/2/6
f 602/2/6 603/2/6 604/2/6
f 604/2/6 603/2/6 605/2/6
f 606/2/6 607/2/6 608/2/6
f 608/2/6 607/2/6 609/2/6
f 610/2/6 611/2/6 612/2/6
f 612/2/6 611/2/6 613/2/6
f 614/2/6 615/2/6 626/2/6
f 626/2/6 615/2/6 627/2/6
f 616/2/6 617/2/6 628/2/6
f 628/2/6 617/2/6 629/2/6
f 618/2/6 619/2/6 630/2/6
f 630/2/6 619/2/6 631/2/6
f 620/2/6 621/2/6 632/2/6
f 632/2/6 621/2/6 633/2/6
f 622/2/6 623/2/6 634/2/6
f 634/2/6 623/2/6 635/2/6
f 624/2/6 625/2/6 636/2/6
f 636/2/6 625/2/6 637/2/6
f 638/2/6 639/2/6 640/2/6
f 640/2/6 639/2/6 641/2/6
f 642/2/6 643/2/6 644/2/6
f 644/2/6 643/2/6 645/2/6
f 646/2/6 647/2/6 648/2/6
f 648/2/6 647/2/6 649/2/6
f 650/2/6 651/2/6 652/2/6
f 652/2/6 651/2/6 653/2/6
f 654/2/6 655/2/6 666/2/6
f 666/2/6 655/2/6 667/2/6
f 656/2/6 657/2/6 668/2/6
f 668/2/6 657/2/6 669/2/6
f 658/2/6 659/2/6 670/2/6
f 670/2/6 659/2/6 671/2/6
f 660/2/6 661/2/6 672/2/6
f 672/2/6 661/2/6 673/2/6
f 662/2/6 663/2/6 674/2/6
f 674/2/6 663/2/6 675/2/6
f 664/2/6 665/2/6 676/2/6
f 676/2/6 665/2/6 677/2/6
f 678/3/6 679/3/6 680/3/6
f 680/3/6 679/3/6 681/3/6
f 682/1/6 683/1/6 685/1/6
f 685/1/6 683/1/6 686/1/6
f 686/1/6 683/1/6 687/1/6
f 687/1/6 683/1/6 688/1/6
f 684/1/6 685/1/6 690/1/6
f 685/1/6 686/1/6 690/1/6
f 690/1/6 686/1/6 691/1/6
f 688/1/6 689/1/6 692/1/6
f 687/1/6 688/1/6 692/1/6
f 692/1/6 689/1/6 693/1/6
f 691/1/6 686/1/6 694/1/6
f 687/1/6 692/1/6 695/1/6
f 691/1/6 694/1/6 696/1/6
f 694/1/6 695/1/6 696/1/6
f 695/1/6 692/1/6 697/1/6
f 696/1/6 695/1/6 697/1/6
f 698/1/6 699/1/6 700/1/6
f 700/1/6 699/1/6 701/1/6
f 698/1/6 700/1/6 702/1/6
f 701/1/6 699/1/6 703/1/6
f 698/1/6 702/1/6 704/1/6
f 702/1/6 703/1/6 704/1/6
f 703/1/6 699/1/6 705/1/6
f 704/1/6 703/1/6 705/1/6
f 706/3/6 707/3/6 708/3/6
f 708/3/6 707/3/6 709/3/6
f 708/1/6 709/1/6 710/1/6
f 710/1/6 709/1/6 711/1/6
f 711/1/6 709/1/6 712/1/6
f 712/1/6 709/1/6 713/1/6
f 708/1/6 710/1/6 714/1/6
f 713/1/6 709/1/6 717/1/6
f 706/3/6 708/3/6 718/3/6
f 716/1/6 717/1/6 718/1/6
f 715/1/6 716/1/6 718/1/6
f 708/1/6 714/1/6 718/1/6
f 714/1/6 715/1/6 718/1/6
f 717/1/6 709/1/6 719/1/6
f 718/1/6 717/1/6 719/1/6
f 709/3/6 707/3/6 719/3/6
f 706/3/6 718/3/6 720/3/6
f 718/3/6 719/3/6 720/3/6
f 719/3/6 707/3/6 721/3/6
f 720/3/6 719/3/6 721/3/6
f 722/3/6 723/3/6 724/3/6
f 724/3/6 723/3/6 725/3/6
